<?xml version="1.0" encoding="UTF-8"?>
<svg width="43px" height="44px" viewBox="0 0 43 44" version="1.1" xmlns="http://www.w3.org/2000/svg" xmlns:xlink="http://www.w3.org/1999/xlink">
    <!-- Generator: Sketch 56 (81588) - https://sketch.com -->
    <title>computer</title>
    <desc>Created with Sketch.</desc>
    <g id="页面-1" stroke="none" stroke-width="1" fill="none" fill-rule="evenodd">
        <g id="系统监控中心1备份-2" transform="translate(-58.000000, -430.000000)" fill-rule="nonzero">
            <g id="模块11" transform="translate(24.000000, 144.000000)">
                <g id="编组-18" transform="translate(32.000000, 284.000000)">
                    <g id="computer">
                        <g id="电脑">
                            <rect id="矩形" fill="#000000" opacity="0" x="0" y="0" width="48" height="48"></rect>
                            <path d="M41.1346406,36.9525625 C42.975467,36.9525625 44.4676094,35.4604201 44.4676094,33.6195938 L44.4676094,6.78885937 C44.4676094,4.94805013 42.9754373,3.45589062 41.1346406,3.45589062 L6.63796875,3.45589062 C4.79714237,3.45589062 3.305,4.948033 3.305,6.78885937 L3.305,33.6195938 C3.305,35.4604201 4.79714237,36.9525625 6.63796875,36.9525625 L20.2807296,36.9525625 L20.3567249,37.3611282 C20.4865329,38.0590013 20.5533594,38.6912508 20.5533594,39.3690469 C20.5533594,41.2423838 19.7220739,42.4893121 18.3604818,43.1701081 C17.8927539,43.4039721 17.3967041,43.552787 16.9014915,43.6353225 C16.6027388,43.6851146 16.366124,43.7020156 16.2203906,43.7020156 C15.7792547,43.7020156 15.372609,43.7880307 15.0888447,43.9299296 C14.8836274,44.0325504 14.8039063,44.1267924 14.8039063,44.1602813 C14.8039063,44.193854 14.8835983,44.2880652 15.0888085,44.3906617 C15.3725431,44.532517 15.7791971,44.6185 16.2203906,44.6185 L31.5522656,44.6185 C31.9934592,44.6185 32.4001131,44.532517 32.6838478,44.3906617 C32.889058,44.2880652 32.96875,44.193854 32.96875,44.1602813 C32.96875,44.1267696 32.8890341,44.032532 32.6838175,43.929915 C32.4000603,43.7880244 31.9934135,43.7020156 31.5522656,43.7020156 C31.4065323,43.7020156 31.1699175,43.6851146 30.8711648,43.6353225 C30.3759521,43.552787 29.8799024,43.4039721 29.4121745,43.1701081 C28.0505824,42.4893121 27.2192969,41.2423838 27.2192969,39.3690469 C27.2192969,38.6912508 27.2861233,38.0590013 27.4159313,37.3611282 L27.4919267,36.9525625 L41.1346406,36.9525625 Z M41.6346406,6.28885937 L41.6346406,30.286625 L6.13796875,30.286625 L6.13796875,6.28885937 L41.6346406,6.28885937 Z" id="形状" stroke="#FF6375" fill-opacity="0.5" fill="#FF6375"></path>
                        </g>
                    </g>
                </g>
            </g>
        </g>
    </g>
</svg>