<?xml version="1.0" encoding="UTF-8"?>
<svg width="416px" height="190px" viewBox="0 0 416 190" version="1.1" xmlns="http://www.w3.org/2000/svg" xmlns:xlink="http://www.w3.org/1999/xlink">
    <!-- Generator: Sketch 56 (81588) - https://sketch.com -->
    <title>网格</title>
    <desc>Created with Sketch.</desc>
    <g id="页面-1" stroke="none" stroke-width="1" fill="none" fill-rule="evenodd" opacity="0.355259487">
        <g id="数据设备分析备份-2" transform="translate(-528.000000, -113.000000)" fill="#053675">
            <g id="编组-11复制备份-4" transform="translate(528.000000, 112.000000)">
                <g id="网格" transform="translate(0.000000, 1.000000)">
                    <rect id="矩形" x="0" y="12" width="416" height="1"></rect>
                    <rect id="矩形备份" x="0" y="23" width="416" height="1"></rect>
                    <rect id="矩形备份-3" x="0" y="34" width="416" height="1"></rect>
                    <rect id="矩形备份-4" x="0" y="45" width="416" height="1"></rect>
                    <rect id="矩形备份-5" x="0" y="56" width="416" height="1"></rect>
                    <rect id="矩形备份-6" x="0" y="67" width="416" height="1"></rect>
                    <rect id="矩形备份-7" x="0" y="78" width="416" height="1"></rect>
                    <rect id="矩形备份-8" x="0" y="89" width="416" height="1"></rect>
                    <rect id="矩形备份-9" x="0" y="100" width="416" height="1"></rect>
                    <rect id="矩形备份-10" x="0" y="111" width="416" height="1"></rect>
                    <rect id="矩形备份-11" x="0" y="122" width="416" height="1"></rect>
                    <rect id="矩形备份-12" x="0" y="133" width="416" height="1"></rect>
                    <rect id="矩形备份-13" x="0" y="144" width="416" height="1"></rect>
                    <rect id="矩形备份-14" x="0" y="155" width="416" height="1"></rect>
                    <rect id="矩形备份-15" x="0" y="166" width="416" height="1"></rect>
                    <rect id="矩形备份-16" x="0" y="177" width="416" height="1"></rect>
                    <rect id="矩形" x="10" y="0" width="1" height="190"></rect>
                    <rect id="矩形备份-17" x="21" y="0" width="1" height="190"></rect>
                    <rect id="矩形备份-18" x="32" y="0" width="1" height="190"></rect>
                    <rect id="矩形备份-19" x="43" y="0" width="1" height="190"></rect>
                    <rect id="矩形备份-20" x="54" y="0" width="1" height="190"></rect>
                    <rect id="矩形备份-21" x="65" y="0" width="1" height="190"></rect>
                    <rect id="矩形备份-22" x="76" y="0" width="1" height="190"></rect>
                    <rect id="矩形备份-23" x="87" y="0" width="1" height="190"></rect>
                    <rect id="矩形备份-24" x="98" y="0" width="1" height="190"></rect>
                    <rect id="矩形备份-25" x="109" y="0" width="1" height="190"></rect>
                    <rect id="矩形备份-26" x="120" y="0" width="1" height="190"></rect>
                    <rect id="矩形备份-27" x="131" y="0" width="1" height="190"></rect>
                    <rect id="矩形备份-28" x="142" y="0" width="1" height="190"></rect>
                    <rect id="矩形备份-29" x="153" y="0" width="1" height="190"></rect>
                    <rect id="矩形备份-30" x="164" y="0" width="1" height="190"></rect>
                    <rect id="矩形备份-31" x="175" y="0" width="1" height="190"></rect>
                    <rect id="矩形备份-32" x="186" y="0" width="1" height="190"></rect>
                    <rect id="矩形备份-33" x="197" y="0" width="1" height="190"></rect>
                    <rect id="矩形备份-34" x="208" y="0" width="1" height="190"></rect>
                    <rect id="矩形备份-35" x="219" y="0" width="1" height="190"></rect>
                    <rect id="矩形备份-36" x="230" y="0" width="1" height="190"></rect>
                    <rect id="矩形备份-37" x="241" y="0" width="1" height="190"></rect>
                    <rect id="矩形备份-38" x="252" y="0" width="1" height="190"></rect>
                    <rect id="矩形备份-39" x="263" y="0" width="1" height="190"></rect>
                    <rect id="矩形备份-40" x="274" y="0" width="1" height="190"></rect>
                    <rect id="矩形备份-41" x="285" y="0" width="1" height="190"></rect>
                    <rect id="矩形备份-42" x="296" y="0" width="1" height="190"></rect>
                    <rect id="矩形备份-43" x="307" y="0" width="1" height="190"></rect>
                    <rect id="矩形备份-44" x="318" y="0" width="1" height="190"></rect>
                    <rect id="矩形备份-45" x="329" y="0" width="1" height="190"></rect>
                    <rect id="矩形备份-46" x="340" y="0" width="1" height="190"></rect>
                    <rect id="矩形备份-47" x="351" y="0" width="1" height="190"></rect>
                    <rect id="矩形备份-48" x="362" y="0" width="1" height="190"></rect>
                    <rect id="矩形备份-49" x="373" y="0" width="1" height="190"></rect>
                    <rect id="矩形备份-50" x="384" y="0" width="1" height="190"></rect>
                    <rect id="矩形备份-51" x="395" y="0" width="1" height="190"></rect>
                    <rect id="矩形备份-110" x="406" y="0" width="1" height="190"></rect>
                </g>
            </g>
        </g>
    </g>
</svg>