<?xml version="1.0" encoding="UTF-8"?>
<svg width="31px" height="45px" viewBox="0 0 31 45" version="1.1" xmlns="http://www.w3.org/2000/svg" xmlns:xlink="http://www.w3.org/1999/xlink">
    <!-- Generator: Sketch 56 (81588) - https://sketch.com -->
    <title>phone</title>
    <desc>Created with Sketch.</desc>
    <g id="页面-1" stroke="none" stroke-width="1" fill="none" fill-rule="evenodd">
        <g id="系统监控中心1备份-2" transform="translate(-431.000000, -427.000000)" fill-rule="nonzero">
            <g id="模块11" transform="translate(24.000000, 144.000000)">
                <g id="编组-18" transform="translate(32.000000, 284.000000)">
                    <g id="phone" transform="translate(367.000000, 0.000000)">
                        <g id="手机">
                            <rect id="矩形" fill="#000000" opacity="0" x="0" y="0" width="48" height="48"></rect>
                            <path d="M38.4566929,37.3700787 C38.4566929,38.1574803 38.2992126,38.8897638 37.984252,39.5669291 C37.6692914,40.2440945 37.2362205,40.8425197 36.6850394,41.3622047 C36.1338583,41.8818898 35.488189,42.2913386 34.7480315,42.5905512 C34.007874,42.8897638 33.2125984,43.0393701 32.3622047,43.0393701 L15.5905512,43.0393701 C14.7401575,43.0393701 13.9448819,42.8897638 13.2047244,42.5905512 C12.4645669,42.2913386 11.8188976,41.8818898 11.2677165,41.3622047 C10.7165354,40.8425197 10.2834645,40.2440945 9.96850392,39.5669291 C9.6535433,38.8897638 9.49606298,38.1574803 9.49606298,37.3700787 L9.49606298,5.71653539 C9.49606298,4.92913383 9.6535433,4.18897634 9.96850392,3.49606294 C10.2834645,2.80314953 10.7165354,2.19685031 11.2677165,1.67716528 C11.8188976,1.15748025 12.4645669,0.748031438 13.2047244,0.448818844 C13.9448819,0.14960625 14.7401575,-4.6874999e-08 15.5905512,-4.6874999e-08 L32.3622047,-4.6874999e-08 C33.2125984,-4.6874999e-08 34.007874,0.14960625 34.7480315,0.448818844 C35.488189,0.748031438 36.1338583,1.15748025 36.6850394,1.67716528 C37.2362205,2.19685031 37.6692914,2.80314953 37.984252,3.49606294 C38.2992126,4.18897634 38.4566929,4.92913383 38.4566929,5.71653539 L38.4566929,37.3700787 L38.4566929,37.3700787 Z M34.6299213,7.98425198 L13.2755906,7.98425198 L13.2755906,35.0551181 L34.6299213,35.0551181 L34.6299213,7.98425198 Z M23.9527559,36.3779528 C23.2913386,36.3779528 22.7165354,36.6141732 22.2283464,37.0866142 C21.7401574,37.5590551 21.496063,38.1417323 21.496063,38.8346457 C21.496063,39.496063 21.7401575,40.0708661 22.2283464,40.5590551 C22.7165354,41.0472441 23.2913386,41.2913386 23.9527559,41.2913386 C24.6456693,41.2913386 25.2283465,41.0472441 25.7007874,40.5590551 C26.1732284,40.0708662 26.4094488,39.496063 26.4094488,38.8346457 C26.4094488,38.1417323 26.1732284,37.5590551 25.7007874,37.0866142 C25.2283465,36.6141732 24.6456693,36.3779528 23.9527559,36.3779528 Z M27.7322835,3.96850392 C27.7322835,3.71653542 27.6535433,3.51968503 27.496063,3.37795275 C27.3385827,3.23622047 27.1653543,3.16535433 26.976378,3.16535433 L20.976378,3.16535433 C20.8188976,3.16535433 20.6535433,3.23622047 20.480315,3.37795275 C20.3070866,3.51968503 20.2204725,3.71653542 20.2204725,3.96850392 C20.2204725,4.22047242 20.2992126,4.41732281 20.4566929,4.55905509 C20.6141732,4.70078738 20.7874016,4.77165352 20.976378,4.77165352 L26.976378,4.77165352 C27.1653543,4.77165352 27.3385827,4.70078738 27.496063,4.55905509 C27.6535433,4.41732281 27.7322835,4.22047242 27.7322835,3.96850392 Z" id="形状" stroke="#1EA1EA" fill-opacity="0.5" fill="#1EA1EA"></path>
                        </g>
                    </g>
                </g>
            </g>
        </g>
    </g>
</svg>