<?xml version="1.0" encoding="UTF-8"?>
<svg width="18px" height="16px" viewBox="0 0 18 16" version="1.1" xmlns="http://www.w3.org/2000/svg" xmlns:xlink="http://www.w3.org/1999/xlink">
    <!-- Generator: Sketch 56 (81588) - https://sketch.com -->
    <title>形状</title>
    <desc>Created with Sketch.</desc>
    <g id="页面-1" stroke="none" stroke-width="1" fill="none" fill-rule="evenodd">
        <g id="系统监控中心1备份-2" transform="translate(-1601.000000, -69.000000)" fill="#1571A3">
            <g id="消息" transform="translate(1600.000000, 64.000000)">
                <g id="公告" transform="translate(0.000000, 3.000000)">
                    <path d="M10.8525391,17.2455078 L4.375,13.2482422 L4.375,6.5 L10.8525391,2.50097656 C11.2041016,2.28476563 11.6576172,2.53613281 11.6576172,2.94921875 L11.6576172,16.7972656 C11.6558594,17.2103516 11.2041016,17.4617188 10.8525391,17.2455078 Z M18.1826172,10.6730469 L14.9306641,10.6730469 C14.4806641,10.6730469 14.1132812,10.3056641 14.1132812,9.85566406 C14.1132812,9.40566406 14.4806641,9.03828125 14.9306641,9.03828125 L18.1826172,9.03828125 C18.6326172,9.03828125 19,9.40566406 19,9.85566406 C19,10.3056641 18.6326172,10.6730469 18.1826172,10.6730469 Z M15.9185547,16.9414062 L13.6193359,14.6421875 C13.3011719,14.3240234 13.3011719,13.8037109 13.6193359,13.4855469 C13.9375,13.1673828 14.4578125,13.1673828 14.7759766,13.4855469 L17.0751953,15.7847656 C17.3933594,16.1029297 17.3933594,16.6232422 17.0751953,16.9414062 C16.7570312,17.2595703 16.2367187,17.2595703 15.9185547,16.9414062 Z M15.8833984,2.84902344 L13.5841797,5.14824219 C13.2660156,5.46640625 13.2660156,5.98671875 13.5841797,6.30488281 C13.9023437,6.62304688 14.4226562,6.62304688 14.7408203,6.30488281 L17.0400391,4.00566406 C17.3582031,3.6875 17.3582031,3.1671875 17.0400391,2.84902344 C16.721875,2.53085937 16.2015625,2.53085937 15.8833984,2.84902344 Z M2.375,6.49880687 L4.375,6.49880687 L4.375,13.2509546 L2.375,13.2509546 C1.82271525,13.2509546 1.375,12.8032394 1.375,12.2509546 L1.375,7.49880687 C1.375,6.94652212 1.82271525,6.49880687 2.375,6.49880687 Z" id="形状"></path>
                </g>
            </g>
        </g>
    </g>
</svg>