<?xml version="1.0" encoding="UTF-8"?>
<svg width="88px" height="32px" viewBox="0 0 88 32" version="1.1" xmlns="http://www.w3.org/2000/svg" xmlns:xlink="http://www.w3.org/1999/xlink">
    <!-- Generator: Sketch 56 (81588) - https://sketch.com -->
    <title>yuanhuan</title>
    <desc>Created with Sketch.</desc>
    <g id="页面-1" stroke="none" stroke-width="1" fill="none" fill-rule="evenodd">
        <g id="系统监控中心1备份-2" transform="translate(-1502.000000, -428.000000)" fill="#0B52B4">
            <g id="模块1备份-3" transform="translate(1416.000000, 144.000000)">
                <g id="编组-12" transform="translate(48.000000, 96.000000)">
                    <g id="编组-11" transform="translate(38.000000, 188.000000)">
                        <g id="yuanhuan">
                            <polygon id="矩形" opacity="0.400000006" points="0 0 80 0 88 8 88 32 10.3109933 32 0 24"></polygon>
                            <path d="M2,0 L8,0 L8,2 L2,2 L2,8 L0,8 L0,0 L2,0 Z" id="形状结合"></path>
                            <path d="M82,24 L88,24 L88,26 L82,26 L82,32 L80,32 L80,24 L82,24 Z" id="形状结合备份" transform="translate(84.000000, 28.000000) scale(-1, -1) translate(-84.000000, -28.000000) "></path>
                        </g>
                    </g>
                </g>
            </g>
        </g>
    </g>
</svg>