<?xml version="1.0" encoding="UTF-8"?>
<svg width="800px" height="141px" viewBox="0 0 800 141" version="1.1" xmlns="http://www.w3.org/2000/svg" xmlns:xlink="http://www.w3.org/1999/xlink">
    <!-- Generator: Sketch 56 (81588) - https://sketch.com -->
    <title>bg33</title>
    <desc>Created with Sketch.</desc>
    <defs>
        <linearGradient x1="85.3856965%" y1="78.9916674%" x2="16.5039225%" y2="21.0083326%" id="linearGradient-1">
            <stop stop-color="#093378" offset="0%"></stop>
            <stop stop-color="#093378" stop-opacity="0" offset="100%"></stop>
        </linearGradient>
        <linearGradient x1="85.3856965%" y1="81.5529741%" x2="16.5039225%" y2="18.4470259%" id="linearGradient-2">
            <stop stop-color="#093378" offset="0%"></stop>
            <stop stop-color="#093378" stop-opacity="0" offset="100%"></stop>
        </linearGradient>
        <linearGradient x1="85.3856965%" y1="70.9342561%" x2="16.5039225%" y2="29.0657439%" id="linearGradient-3">
            <stop stop-color="#093378" offset="0%"></stop>
            <stop stop-color="#093378" stop-opacity="0" offset="100%"></stop>
        </linearGradient>
    </defs>
    <g id="页面-1" stroke="none" stroke-width="1" fill="none" fill-rule="evenodd" opacity="0.400000006">
        <g id="系统监控中心1备份-2" transform="translate(-560.000000, -843.000000)">
            <g id="bg33" transform="translate(560.000000, 843.000000)">
                <g id="编组-24" transform="translate(581.000000, 0.000000)">
                    <polygon id="矩形" fill="url(#linearGradient-1)" points="63 58 99.8051948 58 172 141 129.532468 141"></polygon>
                    <polygon id="矩形备份-11" fill="url(#linearGradient-2)" points="0 12 38.52 12 107 97 68.48 97"></polygon>
                    <polygon id="矩形备份-12" fill="url(#linearGradient-3)" points="117 0 134 0 219 66 199.166667 66"></polygon>
                </g>
                <g id="编组-24备份-2" transform="translate(109.500000, 70.500000) scale(-1, 1) translate(-109.500000, -70.500000) ">
                    <polygon id="矩形" fill="url(#linearGradient-1)" points="63 58 99.8051948 58 172 141 129.532468 141"></polygon>
                    <polygon id="矩形备份-11" fill="url(#linearGradient-2)" points="0 12 38.52 12 107 97 68.48 97"></polygon>
                    <polygon id="矩形备份-12" fill="url(#linearGradient-3)" points="117 0 134 0 219 66 199.166667 66"></polygon>
                </g>
            </g>
        </g>
    </g>
</svg>