<?xml version="1.0" encoding="UTF-8"?>
<svg width="321px" height="243px" viewBox="0 0 321 243" version="1.1" xmlns="http://www.w3.org/2000/svg" xmlns:xlink="http://www.w3.org/1999/xlink">
    <!-- Generator: Sketch 56 (81588) - https://sketch.com -->
    <title>客户信息bg</title>
    <desc>Created with Sketch.</desc>
    <defs>
        <linearGradient x1="50%" y1="0%" x2="50%" y2="69.3382934%" id="linearGradient-1">
            <stop stop-color="#45DBF7" offset="0%"></stop>
            <stop stop-color="#21B5EB" stop-opacity="0" offset="100%"></stop>
        </linearGradient>
    </defs>
    <g id="页面-1" stroke="none" stroke-width="1" fill="none" fill-rule="evenodd">
        <g id="数据设备分析备份-2" transform="translate(-183.000000, -192.000000)">
            <g id="客户bg" transform="translate(24.000000, 112.000000)">
                <g id="客户信息bg" transform="translate(159.000000, 80.000000)">
                    <g id="编组-21" opacity="0.59640067" transform="translate(222.000000, 0.000000)">
                        <rect id="矩形" fill="url(#linearGradient-1)" opacity="0.100000001" x="0" y="0" width="88" height="241"></rect>
                        <rect id="矩形" fill="#21B5EB" opacity="0.103980655" x="6" y="12" width="6" height="14"></rect>
                        <rect id="矩形备份-116" fill="#21B5EB" opacity="0.103980655" x="18" y="12" width="6" height="14"></rect>
                        <rect id="矩形备份-117" fill="#21B5EB" opacity="0.103980655" x="76" y="12" width="6" height="14"></rect>
                        <rect id="矩形备份-118" fill="#21B5EB" opacity="0.103980655" x="76" y="34" width="6" height="14"></rect>
                        <rect id="矩形备份-120" fill="#21B5EB" opacity="0.103980655" x="18" y="69" width="6" height="14"></rect>
                        <rect id="矩形备份-121" fill="#21B5EB" opacity="0.103980655" x="28" y="91" width="6" height="14"></rect>
                        <rect id="矩形备份-122" fill="#21B5EB" opacity="0.103980655" x="70" y="113" width="6" height="14"></rect>
                        <rect id="矩形备份-119" fill="#21B5EB" opacity="0.103980655" x="55" y="34" width="6" height="14"></rect>
                    </g>
                    <polygon id="路径-2" fill="#21B5EB" opacity="0.0780552455" points="170 243 247.461039 114 321 243"></polygon>
                    <polygon id="路径-2备份" fill="#21B5EB" opacity="0.0780552455" points="53 243 167.461039 41 287 243"></polygon>
                    <polygon id="路径-2备份-2" fill="#21B5EB" opacity="0.0780552455" points="0 243 47.7077922 167 93 243"></polygon>
                </g>
            </g>
        </g>
    </g>
</svg>