<?xml version="1.0" encoding="UTF-8"?>
<svg width="100%" height="100%" viewBox="0 0 264 63" version="1.1" xmlns="http://www.w3.org/2000/svg" xmlns:xlink="http://www.w3.org/1999/xlink">
    <!-- Generator: Sketch 56 (81588) - https://sketch.com -->
    <title>斜切线条</title>
    <desc>Created with Sketch.</desc>
    <defs>
        <rect id="path-1" x="0.116025404" y="0.538130468" width="264" height="64"></rect>
    </defs>
    <g id="页面-1" stroke="none" stroke-width="1" fill="none" fill-rule="evenodd" opacity="0.104654948">
        <g id="数据设备分析备份-2" transform="translate(-1103.000000, -640.000000)">
            <g id="表具信息" transform="translate(528.000000, 336.000000)">
                <g id="编组-10备份-5" transform="translate(574.000000, 275.000000)">
                    <g id="斜切线条" transform="translate(0.883975, 28.461870)">
                        <mask id="mask-2" fill="white">
                            <use xlink:href="#path-1"></use>
                        </mask>
                        <g id="蒙版"></g>
                        <path d="M-7.5,-15 L-5.76794919,-14 L-50.2679492,63.0762609 L-52,62.0762609 L-7.5,-15 Z M0.5,-15 L2.23205081,-14 L-42.2679492,63.0762609 L-44,62.0762609 L0.5,-15 Z M8.5,-15 L10.2320508,-14 L-34.2679492,63.0762609 L-36,62.0762609 L8.5,-15 Z M16.5,-15 L18.2320508,-14 L-26.2679492,63.0762609 L-28,62.0762609 L16.5,-15 Z M24.5,-15 L26.2320508,-14 L-18.2679492,63.0762609 L-20,62.0762609 L24.5,-15 Z M32.5,-15 L34.2320508,-14 L-10.2679492,63.0762609 L-12,62.0762609 L32.5,-15 Z M40.5,-15 L42.2320508,-14 L-2.26794919,63.0762609 L-4,62.0762609 L40.5,-15 Z M48.5,-15 L50.2320508,-14 L5.73205081,63.0762609 L4,62.0762609 L48.5,-15 Z M56.5,-15 L58.2320508,-14 L13.7320508,63.0762609 L12,62.0762609 L56.5,-15 Z M64.5,-15 L66.2320508,-14 L21.7320508,63.0762609 L20,62.0762609 L64.5,-15 Z M72.5,-15 L74.2320508,-14 L29.7320508,63.0762609 L28,62.0762609 L72.5,-15 Z M80.5,-15 L82.2320508,-14 L37.7320508,63.0762609 L36,62.0762609 L80.5,-15 Z M88.5,-15 L90.2320508,-14 L45.7320508,63.0762609 L44,62.0762609 L88.5,-15 Z M96.5,-15 L98.2320508,-14 L53.7320508,63.0762609 L52,62.0762609 L96.5,-15 Z M104.5,-15 L106.232051,-14 L61.7320508,63.0762609 L60,62.0762609 L104.5,-15 Z M112.5,-15 L114.232051,-14 L69.7320508,63.0762609 L68,62.0762609 L112.5,-15 Z M120.5,-15 L122.232051,-14 L77.7320508,63.0762609 L76,62.0762609 L120.5,-15 Z M128.5,-15 L130.232051,-14 L85.7320508,63.0762609 L84,62.0762609 L128.5,-15 Z M136.5,-15 L138.232051,-14 L93.7320508,63.0762609 L92,62.0762609 L136.5,-15 Z M144.5,-15 L146.232051,-14 L101.732051,63.0762609 L100,62.0762609 L144.5,-15 Z M152.5,-15 L154.232051,-14 L109.732051,63.0762609 L108,62.0762609 L152.5,-15 Z M160.5,-15 L162.232051,-14 L117.732051,63.0762609 L116,62.0762609 L160.5,-15 Z M168.5,-15 L170.232051,-14 L125.732051,63.0762609 L124,62.0762609 L168.5,-15 Z M176.5,-15 L178.232051,-14 L133.732051,63.0762609 L132,62.0762609 L176.5,-15 Z M184.5,-15 L186.232051,-14 L141.732051,63.0762609 L140,62.0762609 L184.5,-15 Z M192.5,-15 L194.232051,-14 L149.732051,63.0762609 L148,62.0762609 L192.5,-15 Z M200.5,-15 L202.232051,-14 L157.732051,63.0762609 L156,62.0762609 L200.5,-15 Z M208.5,-15 L210.232051,-14 L165.732051,63.0762609 L164,62.0762609 L208.5,-15 Z M216.5,-15 L218.232051,-14 L173.732051,63.0762609 L172,62.0762609 L216.5,-15 Z M224.5,-15 L226.232051,-14 L181.732051,63.0762609 L180,62.0762609 L224.5,-15 Z M232.5,-15 L234.232051,-14 L189.732051,63.0762609 L188,62.0762609 L232.5,-15 Z M240.5,-15 L242.232051,-14 L197.732051,63.0762609 L196,62.0762609 L240.5,-15 Z M248.5,-15 L250.232051,-14 L205.732051,63.0762609 L204,62.0762609 L248.5,-15 Z M256.5,-15 L258.232051,-14 L213.732051,63.0762609 L212,62.0762609 L256.5,-15 Z M264.5,-15 L266.232051,-14 L221.732051,63.0762609 L220,62.0762609 L264.5,-15 Z M272.5,-15 L274.232051,-14 L229.732051,63.0762609 L228,62.0762609 L272.5,-15 Z M280.5,-15 L282.232051,-14 L237.732051,63.0762609 L236,62.0762609 L280.5,-15 Z M288.5,-15 L290.232051,-14 L245.732051,63.0762609 L244,62.0762609 L288.5,-15 Z M296.5,-15 L298.232051,-14 L253.732051,63.0762609 L252,62.0762609 L296.5,-15 Z M304.5,-15 L306.232051,-14 L261.732051,63.0762609 L260,62.0762609 L304.5,-15 Z M312.5,-15 L314.232051,-14 L269.732051,63.0762609 L268,62.0762609 L312.5,-15 Z M320.5,-15 L322.232051,-14 L277.732051,63.0762609 L276,62.0762609 L320.5,-15 Z" id="形状结合" fill="#155081" mask="url(#mask-2)"></path>
                    </g>
                </g>
            </g>
        </g>
    </g>
</svg>