<?xml version="1.0" encoding="UTF-8"?>
<svg width="809px" height="186px" viewBox="0 0 809 186" version="1.1" xmlns="http://www.w3.org/2000/svg" xmlns:xlink="http://www.w3.org/1999/xlink">
    <!-- Generator: Sketch 56 (81588) - https://sketch.com -->
    <title>椭圆 高光bg</title>
    <desc>Created with Sketch.</desc>
    <defs>
        <filter x="-8.9%" y="-45.3%" width="117.8%" height="190.6%" filterUnits="objectBoundingBox" id="filter-1">
            <feGaussianBlur stdDeviation="16" in="SourceGraphic"></feGaussianBlur>
        </filter>
        <radialGradient cx="50%" cy="43.1256932%" fx="50%" fy="43.1256932%" r="80.9121947%" gradientTransform="translate(0.500000,0.431257),scale(0.152040,1.000000),rotate(90.000000),translate(-0.500000,-0.431257)" id="radialGradient-2">
            <stop stop-color="#2D77B7" offset="0%"></stop>
            <stop stop-color="#449AE6" stop-opacity="0.0405649038" offset="100%"></stop>
        </radialGradient>
    </defs>
    <g id="页面-1" stroke="none" stroke-width="1" fill="none" fill-rule="evenodd">
        <g id="数据设备分析备份-2" transform="translate(-556.000000, -570.000000)">
            <g id="表具信息" transform="translate(528.000000, 336.000000)">
                <g id="椭圆-高光bg" transform="translate(28.000000, 274.000000)">
                    <ellipse id="椭圆形" fill="#0663EB" opacity="0.604701451" filter="url(#filter-1)" cx="404" cy="53" rx="269" ry="53"></ellipse>
                    <path d="M149.725726,6 C147.621123,6 147.412487,4.65685425 149.259724,3 C151.106961,1.34314575 154.265859,0 156.315321,0 C158.364783,0 158.573419,1.34314575 156.781323,3 C154.989228,4.65685425 151.830329,6 149.725726,6 Z M165.843676,6 C163.68325,6 163.377306,4.65685425 165.160332,3 C166.943358,1.34314575 170.094272,0 172.198094,0 C174.301917,0 174.60786,1.34314575 172.881438,3 C171.155016,4.65685425 168.004103,6 165.843676,6 Z M180.971103,6 C178.754106,6 178.345975,4.65685425 180.059517,3 C181.773059,1.34314575 184.912302,0 187.071213,0 C189.230124,0 189.638255,1.34314575 187.982799,3 C186.327344,4.65685425 183.1881,6 180.971103,6 Z M196.897738,6 C194.851136,6 194.387435,4.65685425 195.862033,3 C197.336631,1.34314575 200.147659,0 202.140639,0 C204.133619,0 204.59732,1.34314575 203.176343,3 C201.755367,4.65685425 198.944339,6 196.897738,6 Z M212.031037,6 C209.933081,6 209.368626,4.65685425 210.77029,3 C212.171955,1.34314575 214.964398,0 217.007387,0 C219.050375,0 219.614831,1.34314575 218.268133,3 C216.921436,4.65685425 214.128993,6 212.031037,6 Z M227.174325,6 C225.025373,6 224.355911,4.65685425 225.67904,3 C227.002169,1.34314575 229.771204,0 231.863852,0 C233.956501,0 234.625963,1.34314575 233.359137,3 C232.092312,4.65685425 229.323277,6 227.174325,6 Z M242.327945,6 C240.128828,6 239.350322,4.65685425 240.589103,3 C241.827883,1.34314575 244.568141,0 246.70964,0 C248.851138,0 249.629645,1.34314575 248.448482,3 C247.267319,4.65685425 244.527062,6 242.327945,6 Z M257.492122,6 C255.244213,6 254.352945,4.65685425 255.501418,3 C256.649891,1.34314575 259.355458,0 261.54447,0 C263.733482,0 264.624751,1.34314575 263.535174,3 C262.445597,4.65685425 259.74003,6 257.492122,6 Z M273.370599,6 C271.330844,6 270.435459,4.65685425 271.3707,3 C272.305941,1.34314575 274.674329,0 276.660641,0 C278.646954,0 279.542339,1.34314575 278.66054,3 C277.778741,4.65685425 275.410354,6 273.370599,6 Z M288.535316,6 C286.456285,6 285.455344,4.65685425 286.29965,3 C287.143957,1.34314575 289.469632,0 291.49419,0 C293.518749,0 294.51969,1.34314575 293.729855,3 C292.94002,4.65685425 290.614346,6 288.535316,6 Z M303.709064,6 C301.593716,6 300.485431,4.65685425 301.23364,3 C301.98185,1.34314575 304.258293,0 306.318219,0 C308.378144,0 309.486429,1.34314575 308.793643,3 C308.100856,4.65685425 305.824413,6 303.709064,6 Z M319.891318,6 C317.743242,6 316.526562,4.65685425 317.173786,3 C317.821011,1.34314575 320.041426,0 322.133221,0 C324.225017,0 325.441697,1.34314575 324.850753,3 C324.259809,4.65685425 322.039394,6 319.891318,6 Z M335.081314,6 C332.90473,6 331.579444,4.65685425 332.121203,3 C332.662963,1.34314575 334.820385,0 336.939942,0 C339.059498,0 340.384784,1.34314575 339.900052,3 C339.41532,4.65685425 337.257897,6 335.081314,6 Z M350.278046,6 C348.077773,6 346.644597,4.65685425 347.076957,3 C347.509316,1.34314575 349.596754,0 351.739378,0 C353.882003,0 355.315179,1.34314575 354.940467,3 C354.565755,4.65685425 352.478318,6 350.278046,6 Z M365.480275,6 C363.261672,6 361.722312,4.65685425 362.042018,3 C362.361723,1.34314575 364.372305,0 366.532779,0 C368.693253,0 370.232614,1.34314575 369.971037,3 C369.70946,4.65685425 367.698877,6 365.480275,6 Z M381.686554,6 C379.455437,6 377.812618,4.65685425 378.017214,3 C378.22181,1.34314575 380.148958,0 382.321619,0 C384.494279,0 386.137099,1.34314575 385.990959,3 C385.844818,4.65685425 383.917671,6 381.686554,6 Z M396.895266,6 C394.657796,6 392.915253,4.65685425 393.003187,3 C393.091121,1.34314575 394.92871,0 397.107557,0 C399.286404,0 401.028947,1.34314575 400.999636,3 C400.970324,4.65685425 399.132735,6 396.895266,6 Z M412.104734,6 C409.867265,6 408.029676,4.65685425 408.000364,3 C407.971053,1.34314575 409.713596,0 411.892443,0 C414.07129,0 415.908879,1.34314575 415.996813,3 C416.084747,4.65685425 414.342204,6 412.104734,6 Z M427.313446,6 C425.082329,6 423.155182,4.65685425 423.009041,3 C422.862901,1.34314575 424.505721,0 426.678381,0 C428.851042,0 430.77819,1.34314575 430.982786,3 C431.187382,4.65685425 429.544563,6 427.313446,6 Z M442.519725,6 C440.301123,6 438.29054,4.65685425 438.028963,3 C437.767386,1.34314575 439.306747,0 441.467221,0 C443.627695,0 445.638277,1.34314575 445.957982,3 C446.277688,4.65685425 444.738328,6 442.519725,6 Z M458.721954,6 C456.521682,6 454.434245,4.65685425 454.059533,3 C453.684821,1.34314575 455.117997,0 457.260622,0 C459.403246,0 461.490684,1.34314575 461.923043,3 C462.355403,4.65685425 460.922227,6 458.721954,6 Z M473.918686,6 C471.742103,6 469.58468,4.65685425 469.099948,3 C468.615216,1.34314575 469.940502,0 472.060058,0 C474.179615,0 476.337037,1.34314575 476.878797,3 C477.420556,4.65685425 476.09527,6 473.918686,6 Z M489.108682,6 C486.960606,6 484.740191,4.65685425 484.149247,3 C483.558303,1.34314575 484.774983,0 486.866779,0 C488.958574,0 491.178989,1.34314575 491.826214,3 C492.473438,4.65685425 491.256758,6 489.108682,6 Z M504.290936,6 C502.175587,6 499.899144,4.65685425 499.206357,3 C498.513571,1.34314575 499.621856,0 501.681781,0 C503.741707,0 506.01815,1.34314575 506.76636,3 C507.514569,4.65685425 506.406284,6 504.290936,6 Z M519.464684,6 C517.385654,6 515.05998,4.65685425 514.270145,3 C513.48031,1.34314575 514.481251,0 516.50581,0 C518.530368,0 520.856043,1.34314575 521.70035,3 C522.544656,4.65685425 521.543715,6 519.464684,6 Z M535.629401,6 C533.589646,6 531.221259,4.65685425 530.33946,3 C529.457661,1.34314575 530.353046,0 532.339359,0 C534.325671,0 536.694059,1.34314575 537.6293,3 C538.564541,4.65685425 537.669156,6 535.629401,6 Z M550.507878,6 C548.25997,6 545.554403,4.65685425 544.464826,3 C543.375249,1.34314575 544.266518,0 546.45553,0 C548.644542,0 551.350109,1.34314575 552.498582,3 C553.647055,4.65685425 552.755787,6 550.507878,6 Z M566.672055,6 C564.472938,6 561.732681,4.65685425 560.551518,3 C559.370355,1.34314575 560.148862,0 562.29036,0 C564.431859,0 567.172117,1.34314575 568.410897,3 C569.649678,4.65685425 568.871172,6 566.672055,6 Z M581.825675,6 C579.676723,6 576.907688,4.65685425 575.640863,3 C574.374037,1.34314575 575.043499,0 577.136148,0 C579.228796,0 581.997831,1.34314575 583.32096,3 C584.644089,4.65685425 583.974627,6 581.825675,6 Z M596.968963,6 C594.871007,6 592.078564,4.65685425 590.731867,3 C589.385169,1.34314575 589.949625,0 591.992613,0 C594.035602,0 596.828045,1.34314575 598.22971,3 C599.631374,4.65685425 599.066919,6 596.968963,6 Z M612.102262,6 C610.055661,6 607.244633,4.65685425 605.823657,3 C604.40268,1.34314575 604.866381,0 606.859361,0 C608.852341,0 611.663369,1.34314575 613.137967,3 C614.612565,4.65685425 614.148864,6 612.102262,6 Z M628.028897,6 C625.8119,6 622.672656,4.65685425 621.017201,3 C619.361745,1.34314575 619.769876,0 621.928787,0 C624.087698,0 627.226941,1.34314575 628.940483,3 C630.654025,4.65685425 630.245894,6 628.028897,6 Z M643.156324,6 C640.995897,6 637.844984,4.65685425 636.118562,3 C634.39214,1.34314575 634.698083,0 636.801906,0 C638.905728,0 642.056642,1.34314575 643.839668,3 C645.622694,4.65685425 645.31675,6 643.156324,6 Z M658.274274,6 C656.169671,6 653.010772,4.65685425 651.218677,3 C649.426581,1.34314575 649.635217,0 651.684679,0 C653.734141,0 656.893039,1.34314575 658.740276,3 C660.587513,4.65685425 660.378877,6 658.274274,6 Z M136.822154,16 C134.672591,16 134.383343,14.6568542 136.1761,13 C137.968857,11.3431458 141.121357,10 143.217405,10 C145.313454,10 145.602702,11.3431458 143.86346,13 C142.124218,14.6568542 138.971718,16 136.822154,16 Z M152.941356,16 C150.738225,16 150.352841,14.6568542 152.080577,13 C153.808313,11.3431458 156.950447,10 159.09873,10 C161.247013,10 161.632397,11.3431458 159.959509,13 C158.286622,14.6568542 155.144488,16 152.941356,16 Z M169.069526,16 C166.812368,16 166.326425,14.6568542 167.984143,13 C169.64186,11.3431458 172.76994,10 174.970905,10 C177.17187,10 177.657812,11.3431458 176.056289,13 C174.454765,14.6568542 171.326685,16 169.069526,16 Z M185.207148,16 C182.895814,16 182.304913,14.6568542 183.887333,13 C185.469753,11.3431458 188.579617,10 190.833408,10 C193.087199,10 193.678101,11.3431458 192.153223,13 C190.628345,14.6568542 187.518481,16 185.207148,16 Z M202.119188,16 C199.990427,16 199.360276,14.6568542 200.711706,13 C202.063135,11.3431458 204.841424,10 206.917187,10 C208.99295,10 209.623101,11.3431458 208.324669,13 C207.026236,14.6568542 204.247948,16 202.119188,16 Z M218.261164,16 C216.084428,16 215.352213,14.6568542 216.625716,13 C217.89922,11.3431458 220.652261,10 222.774805,10 C224.89735,10 225.629565,11.3431458 224.410253,13 C223.190941,14.6568542 220.4379,16 218.261164,16 Z M234.412599,16 C232.188911,16 231.351146,14.6568542 232.541397,13 C233.731649,11.3431458 236.454315,10 238.622642,10 C240.790969,10 241.628735,11.3431458 240.493844,13 C239.358953,14.6568542 236.636287,16 234.412599,16 Z M250.573616,16 C248.304494,16 247.358021,14.6568542 248.459608,13 C249.561195,11.3431458 252.247899,10 254.46053,10 C256.67316,10 257.619634,11.3431458 256.574538,13 C255.529443,14.6568542 252.842738,16 250.573616,16 Z M266.744198,16 C264.431699,16 263.373791,14.6568542 264.381293,13 C265.388795,11.3431458 268.033516,10 270.288443,10 C272.54337,10 273.601279,11.3431458 272.651348,13 C271.701418,14.6568542 269.056696,16 266.744198,16 Z M282.924158,16 C280.570919,16 279.399386,14.6568542 280.307466,13 C281.215546,11.3431458 283.811875,10 286.106528,10 C288.401182,10 289.572715,11.3431458 288.72322,13 C287.873726,14.6568542 285.277397,16 282.924158,16 Z M298.767218,16 C296.642115,16 295.49838,14.6568542 296.212613,13 C296.926847,11.3431458 299.185695,10 301.257891,10 C303.330088,10 304.473824,11.3431458 303.812496,13 C303.151169,14.6568542 300.892321,16 298.767218,16 Z M314.942667,16 C312.787652,16 311.540833,14.6568542 312.157818,13 C312.774803,11.3431458 314.97846,10 317.079823,10 C319.181187,10 320.428006,11.3431458 319.864672,13 C319.301338,14.6568542 317.097681,16 314.942667,16 Z M331.124881,16 C328.943911,16 327.594042,14.6568542 328.109863,13 C328.625685,11.3431458 330.767851,10 332.894524,10 C335.021197,10 336.371066,11.3431458 335.909541,13 C335.448016,14.6568542 333.305851,16 331.124881,16 Z M347.312948,16 C345.11048,16 343.658405,14.6568542 344.069647,13 C344.480889,11.3431458 346.555268,10 348.702903,10 C350.850538,10 352.302613,11.3431458 351.946204,13 C351.589794,14.6568542 349.515415,16 347.312948,16 Z M363.505768,16 C361.286712,16 359.73413,14.6568542 360.037978,13 C360.341827,11.3431458 362.34226,10 364.506071,10 C366.669882,10 368.222464,11.3431458 367.97386,13 C367.725257,14.6568542 365.724824,16 363.505768,16 Z M379.702077,16 C377.471718,16 375.821201,14.6568542 376.015545,13 C376.209888,11.3431458 378.130484,10 380.305316,10 C382.480147,10 384.130664,11.3431458 383.991848,13 C383.853031,14.6568542 381.932435,16 379.702077,16 Z M395.900476,16 C393.664387,16 391.919372,14.6568542 392.002876,13 C392.08638,11.3431458 393.921653,10 396.102072,10 C398.282491,10 400.027506,11.3431458 399.999672,13 C399.971837,14.6568542 398.136564,16 395.900476,16 Z M412.099524,16 C409.863436,16 408.028163,14.6568542 408.000328,13 C407.972494,11.3431458 409.717509,10 411.897928,10 C414.078347,10 415.91362,11.3431458 415.997124,13 C416.080628,14.6568542 414.335613,16 412.099524,16 Z M428.297923,16 C426.067565,16 424.146969,14.6568542 424.008152,13 C423.869336,11.3431458 425.519853,10 427.694684,10 C429.869516,10 431.790112,11.3431458 431.984455,13 C432.178799,14.6568542 430.528282,16 428.297923,16 Z M444.494232,16 C442.275176,16 440.274743,14.6568542 440.02614,13 C439.777536,11.3431458 441.330118,10 443.493929,10 C445.65774,10 447.658173,11.3431458 447.962022,13 C448.26587,14.6568542 446.713288,16 444.494232,16 Z M460.687052,16 C458.484585,16 456.410206,14.6568542 456.053796,13 C455.697387,11.3431458 457.149462,10 459.297097,10 C461.444732,10 463.519111,11.3431458 463.930353,13 C464.341595,14.6568542 462.88952,16 460.687052,16 Z M476.875119,16 C474.694149,16 472.551984,14.6568542 472.090459,13 C471.628934,11.3431458 472.978803,10 475.105476,10 C477.232149,10 479.374315,11.3431458 479.890137,13 C480.405958,14.6568542 479.056089,16 476.875119,16 Z M493.057333,16 C490.902319,16 488.698662,14.6568542 488.135328,13 C487.571994,11.3431458 488.818813,10 490.920177,10 C493.02154,10 495.225197,11.3431458 495.842182,13 C496.459167,14.6568542 495.212348,16 493.057333,16 Z M509.232782,16 C507.107679,16 504.848831,14.6568542 504.187504,13 C503.526176,11.3431458 504.669912,10 506.742109,10 C508.814305,10 511.073153,11.3431458 511.787387,13 C512.50162,14.6568542 511.357885,16 509.232782,16 Z M526.075842,16 C523.722603,16 521.126274,14.6568542 520.27678,13 C519.427285,11.3431458 520.598818,10 522.893472,10 C525.188125,10 527.784454,11.3431458 528.692534,13 C529.600614,14.6568542 528.429081,16 526.075842,16 Z M542.255802,16 C539.943304,16 537.298582,14.6568542 536.348652,13 C535.398721,11.3431458 536.45663,10 538.711557,10 C540.966484,10 543.611205,11.3431458 544.618707,13 C545.626209,14.6568542 544.568301,16 542.255802,16 Z M558.426384,16 C556.157262,16 553.470557,14.6568542 552.425462,13 C551.380366,11.3431458 552.32684,10 554.53947,10 C556.752101,10 559.438805,11.3431458 560.540392,13 C561.641979,14.6568542 560.695506,16 558.426384,16 Z M574.587401,16 C572.363713,16 569.641047,14.6568542 568.506156,13 C567.371265,11.3431458 568.209031,10 570.377358,10 C572.545685,10 575.268351,11.3431458 576.458603,13 C577.648854,14.6568542 576.811089,16 574.587401,16 Z M590.738836,16 C588.5621,16 585.809059,14.6568542 584.589747,13 C583.370435,11.3431458 584.10265,10 586.225195,10 C588.347739,10 591.10078,11.3431458 592.374284,13 C593.647787,14.6568542 592.915572,16 590.738836,16 Z M606.880812,16 C604.752052,16 601.973764,14.6568542 600.675331,13 C599.376899,11.3431458 600.00705,10 602.082813,10 C604.158576,10 606.936865,11.3431458 608.288294,13 C609.639724,14.6568542 609.009573,16 606.880812,16 Z M623.792852,16 C621.481519,16 618.371655,14.6568542 616.846777,13 C615.321899,11.3431458 615.912801,10 618.166592,10 C620.420383,10 623.530247,11.3431458 625.112667,13 C626.695087,14.6568542 626.104186,16 623.792852,16 Z M639.930474,16 C637.673315,16 634.545235,14.6568542 632.943711,13 C631.342188,11.3431458 631.82813,10 634.029095,10 C636.23006,10 639.35814,11.3431458 641.015857,13 C642.673575,14.6568542 642.187632,16 639.930474,16 Z M656.058644,16 C653.855512,16 650.713378,14.6568542 649.040491,13 C647.367603,11.3431458 647.752987,10 649.90127,10 C652.049553,10 655.191687,11.3431458 656.919423,13 C658.647159,14.6568542 658.261775,16 656.058644,16 Z M672.177846,16 C670.028282,16 666.875782,14.6568542 665.13654,13 C663.397298,11.3431458 663.686546,10 665.782595,10 C667.878643,10 671.031143,11.3431458 672.8239,13 C674.616657,14.6568542 674.327409,16 672.177846,16 Z M123.106366,28 C120.696671,28 120.295146,26.6568542 122.209535,25 C124.123925,23.3431458 127.582962,22 129.935512,22 C132.288061,22 132.689586,23.3431458 130.832343,25 C128.975099,26.6568542 125.516062,28 123.106366,28 Z M141.034862,28 C138.792903,28 138.333125,26.6568542 140.00792,25 C141.682715,23.3431458 144.814771,22 147.003563,22 C149.192354,22 149.652132,23.3431458 148.030505,25 C146.408878,26.6568542 143.276822,28 141.034862,28 Z M157.163308,28 C154.86981,28 154.311278,26.6568542 155.915794,25 C157.520309,23.3431458 160.636181,22 162.875289,22 C165.114398,22 165.672929,23.3431458 164.122804,25 C162.572679,26.6568542 159.456807,28 157.163308,28 Z M174.300605,28 C171.955658,28 171.294436,26.6568542 172.823723,25 C174.353009,23.3431458 177.448614,22 179.73795,22 C182.027285,22 182.688508,23.3431458 181.214832,25 C179.741156,26.6568542 176.645551,28 174.300605,28 Z M191.447087,28 C189.051138,28 188.28341,26.6568542 189.732319,25 C191.181228,23.3431458 194.252041,22 196.59117,22 C198.9303,22 199.698028,23.3431458 198.305938,25 C196.913849,26.6568542 193.843037,28 191.447087,28 Z M208.60302,28 C206.156913,28 205.279062,26.6568542 206.642284,25 C208.005506,23.3431458 211.046551,22 213.434648,22 C215.822745,22 216.700596,23.3431458 215.395384,25 C214.090171,26.6568542 211.049126,28 208.60302,28 Z M225.491714,28 C223.246245,28 222.354061,26.6568542 223.498964,25 C224.643868,23.3431458 227.349139,22 229.541356,22 C231.733574,22 232.625759,23.3431458 231.534106,25 C230.442454,26.6568542 227.737183,28 225.491714,28 Z M242.649414,28 C240.361588,28 239.364607,26.6568542 240.422596,25 C241.480584,23.3431458 244.14892,22 246.382491,22 C248.616061,22 249.613042,23.3431458 248.609309,25 C247.605576,26.6568542 244.93724,28 242.649414,28 Z M259.815736,28 C257.48765,28 256.383612,26.6568542 257.349797,25 C258.315982,23.3431458 260.941759,22 263.214633,22 C265.487508,22 266.591546,23.3431458 265.680572,25 C264.769597,26.6568542 262.143821,28 259.815736,28 Z M276.990452,28 C274.624716,28 273.411861,26.6568542 274.281465,25 C275.151068,23.3431458 277.728348,22 280.037981,22 C282.347613,22 283.560468,23.3431458 282.746968,25 C281.933468,26.6568542 279.356188,28 276.990452,28 Z M294.173171,28 C291.772918,28 290.450078,26.6568542 291.218525,25 C291.986973,23.3431458 294.509568,22 296.852899,22 C299.196231,22 300.519071,23.3431458 299.807545,25 C299.09602,26.6568542 296.573425,28 294.173171,28 Z M310.363325,28 C307.932214,28 306.498892,26.6568542 307.161911,25 C307.82493,23.3431458 310.286481,22 312.659938,22 C315.033396,22 316.466718,23.3431458 315.861353,25 C315.255987,26.6568542 312.794437,28 310.363325,28 Z M327.560164,28 C325.102365,28 323.558808,26.6568542 324.112532,25 C324.666255,23.3431458 327.060326,22 329.459839,22 C331.859351,22 333.402909,23.3431458 332.907471,25 C332.412034,26.6568542 330.017963,28 327.560164,28 Z M344.762757,28 C342.282918,28 340.63017,26.6568542 341.071241,25 C341.512311,23.3431458 343.832502,22 346.253531,22 C348.674561,22 350.327309,23.3431458 349.945048,25 C349.562787,26.6568542 347.242596,28 344.762757,28 Z M361.528892,28 C359.309509,28 357.745013,26.6568542 358.034493,25 C358.323973,23.3431458 360.315141,22 362.481892,22 C364.648643,22 366.213139,23.3431458 365.976291,25 C365.739444,26.6568542 363.748276,28 361.528892,28 Z M378.716138,28 C376.486496,28 374.829041,26.6568542 375.014106,25 C375.199172,23.3431458 377.113815,22 379.29058,22 C381.467346,22 383.124802,23.3431458 382.992612,25 C382.860422,26.6568542 380.945779,28 378.716138,28 Z M395.905192,28 C393.670356,28 391.92311,26.6568542 392.002609,25 C392.082108,23.3431458 393.915282,22 396.097119,22 C398.278956,22 400.026202,23.3431458 399.999703,25 C399.973203,26.6568542 398.140028,28 395.905192,28 Z M413.094808,28 C410.859972,28 409.026797,26.6568542 409.000297,25 C408.973798,23.3431458 410.721044,22 412.902881,22 C415.084718,22 416.917892,23.3431458 416.997391,25 C417.07689,26.6568542 415.329644,28 413.094808,28 Z M430.283862,28 C428.054221,28 426.139578,26.6568542 426.007388,25 C425.875198,23.3431458 427.532654,22 429.70942,22 C431.886185,22 433.800828,23.3431458 433.985894,25 C434.170959,26.6568542 432.513504,28 430.283862,28 Z M446.471108,28 C444.251724,28 442.260556,26.6568542 442.023709,25 C441.786861,23.3431458 443.351357,22 445.518108,22 C447.684859,22 449.676027,23.3431458 449.965507,25 C450.254987,26.6568542 448.690491,28 446.471108,28 Z M464.237243,28 C461.757404,28 459.437213,26.6568542 459.054952,25 C458.672691,23.3431458 460.325439,22 462.746469,22 C465.167498,22 467.487689,23.3431458 467.928759,25 C468.36983,26.6568542 466.717082,28 464.237243,28 Z M481.439836,28 C478.982037,28 476.587966,26.6568542 476.092529,25 C475.597091,23.3431458 477.140649,22 479.540161,22 C481.939674,22 484.333745,23.3431458 484.887468,25 C485.441192,26.6568542 483.897635,28 481.439836,28 Z M497.636675,28 C495.205563,28 492.744013,26.6568542 492.138647,25 C491.533282,23.3431458 492.966604,22 495.340062,22 C497.713519,22 500.17507,23.3431458 500.838089,25 C501.501108,26.6568542 500.067786,28 497.636675,28 Z M514.826829,28 C512.426575,28 509.90398,26.6568542 509.192455,25 C508.480929,23.3431458 509.803769,22 512.147101,22 C514.490432,22 517.013027,23.3431458 517.781475,25 C518.549922,26.6568542 517.227082,28 514.826829,28 Z M532.009548,28 C529.643812,28 527.066532,26.6568542 526.253032,25 C525.439532,23.3431458 526.652387,22 528.962019,22 C531.271652,22 533.848932,23.3431458 534.718535,25 C535.588139,26.6568542 534.375284,28 532.009548,28 Z M549.184264,28 C546.856179,28 544.230403,26.6568542 543.319428,25 C542.408454,23.3431458 543.512492,22 545.785367,22 C548.058241,22 550.684018,23.3431458 551.650203,25 C552.616388,26.6568542 551.51235,28 549.184264,28 Z M566.350586,28 C564.06276,28 561.394424,26.6568542 560.390691,25 C559.386958,23.3431458 560.383939,22 562.617509,22 C564.85108,22 567.519416,23.3431458 568.577404,25 C569.635393,26.6568542 568.638412,28 566.350586,28 Z M582.508286,28 C580.262817,28 577.557546,26.6568542 576.465894,25 C575.374241,23.3431458 576.266426,22 578.458644,22 C580.650861,22 583.356132,23.3431458 584.501036,25 C585.645939,26.6568542 584.753755,28 582.508286,28 Z M600.39698,28 C597.950874,28 594.909829,26.6568542 593.604616,25 C592.299404,23.3431458 593.177255,22 595.565352,22 C597.953449,22 600.994494,23.3431458 602.357716,25 C603.720938,26.6568542 602.843087,28 600.39698,28 Z M617.552913,28 C615.156963,28 612.086151,26.6568542 610.694062,25 C609.301972,23.3431458 610.0697,22 612.40883,22 C614.747959,22 617.818772,23.3431458 619.267681,25 C620.71659,26.6568542 619.948862,28 617.552913,28 Z M633.699395,28 C631.354449,28 628.258844,26.6568542 626.785168,25 C625.311492,23.3431458 625.972715,22 628.26205,22 C630.551386,22 633.646991,23.3431458 635.176277,25 C636.705564,26.6568542 636.044342,28 633.699395,28 Z M650.836692,28 C648.543193,28 645.427321,26.6568542 643.877196,25 C642.327071,23.3431458 642.885602,22 645.124711,22 C647.363819,22 650.479691,23.3431458 652.084206,25 C653.688722,26.6568542 653.13019,28 650.836692,28 Z M667.965138,28 C665.723178,28 662.591122,26.6568542 660.969495,25 C659.347868,23.3431458 659.807646,22 661.996437,22 C664.185229,22 667.317285,23.3431458 668.99208,25 C670.666875,26.6568542 670.207097,28 667.965138,28 Z M684.893634,28 C682.483938,28 679.024901,26.6568542 677.167657,25 C675.310414,23.3431458 675.711939,22 678.064488,22 C680.417038,22 683.876075,23.3431458 685.790465,25 C687.704854,26.6568542 687.303329,28 684.893634,28 Z M110.204299,38 C107.7533,38 107.273414,36.6568542 109.132443,35 C110.991472,33.3431458 114.440453,32 116.835959,32 C119.231464,32 119.71135,33.3431458 117.907814,35 C116.104278,36.6568542 112.655297,38 110.204299,38 Z M128.336696,38 C125.831659,38 125.249237,36.6568542 127.035819,35 C128.822401,33.3431458 132.255467,32 134.703786,32 C137.152106,32 137.734528,33.3431458 136.004663,35 C134.274798,36.6568542 130.841732,38 128.336696,38 Z M145.477854,38 C142.918777,38 142.229851,36.6568542 143.939093,35 C145.648335,33.3431458 149.061521,32 151.562657,32 C154.063793,32 154.752719,33.3431458 153.101418,35 C151.450116,36.6568542 148.03693,38 145.477854,38 Z M163.389193,38 C161.013924,38 160.287287,36.6568542 161.766204,35 C163.245121,33.3431458 166.325961,32 168.647451,32 C170.968942,32 171.695579,33.3431458 170.27044,35 C168.845302,36.6568542 165.764462,38 163.389193,38 Z M181.53432,38 C179.110839,38 178.28049,36.6568542 179.679685,35 C181.07888,33.3431458 184.13329,32 186.5019,32 C188.870511,32 189.700859,33.3431458 188.356535,35 C187.012211,36.6568542 183.957801,38 181.53432,38 Z M199.688158,38 C197.217465,38 196.280245,36.6568542 197.594819,35 C198.909393,33.3431458 201.93261,32 204.347363,32 C206.762117,32 207.699337,33.3431458 206.440702,35 C205.182068,36.6568542 202.158851,38 199.688158,38 Z M216.850801,38 C214.334311,38 213.287342,36.6568542 214.51233,35 C215.737319,33.3431458 218.724199,32 221.183713,32 C223.643228,32 224.690197,33.3431458 223.522184,35 C222.354172,36.6568542 219.367292,38 216.850801,38 Z M235.022237,38 C232.461812,38 231.302576,36.6568542 232.433009,35 C233.563442,33.3431458 236.508478,32 239.010931,32 C241.513385,32 242.672622,33.3431458 241.600159,35 C240.527697,36.6568542 237.582661,38 235.022237,38 Z M252.882092,38 C250.540278,38 249.394053,36.6568542 250.321927,35 C251.2498,33.3431458 253.857422,32 256.146214,32 C258.435006,32 259.581231,33.3431458 258.706379,35 C257.831527,36.6568542 255.223905,38 252.882092,38 Z M271.051703,38 C268.675016,38 267.424477,36.6568542 268.258546,35 C269.092615,33.3431458 271.651825,32 273.974701,32 C276.297576,32 277.548115,33.3431458 276.767857,35 C275.987599,36.6568542 273.42839,38 271.051703,38 Z M288.228452,38 C285.819908,38 284.464193,36.6568542 285.200378,35 C285.936562,33.3431458 288.441661,32 290.795672,32 C293.149684,32 294.505399,33.3431458 293.823747,35 C293.142095,36.6568542 290.636996,38 288.228452,38 Z M306.411795,38 C303.974865,38 302.513716,36.6568542 303.148227,35 C303.782738,33.3431458 306.227905,32 308.60966,32 C310.991416,32 312.452565,33.3431458 311.873229,35 C311.293892,36.6568542 308.848725,38 306.411795,38 Z M324.601038,38 C322.13963,38 320.573449,36.6568542 321.102875,35 C321.632302,33.3431458 324.011675,32 326.417354,32 C328.823033,32 330.389214,33.3431458 329.915517,35 C329.441819,36.6568542 327.062446,38 324.601038,38 Z M341.795336,38 C339.313763,38 337.643657,36.6568542 338.065049,35 C338.486442,33.3431458 340.794212,32 343.219599,32 C345.644986,32 347.315093,33.3431458 346.949886,35 C346.584679,36.6568542 344.276909,38 341.795336,38 Z M359.993708,38 C357.496643,38 355.724448,36.6568542 356.035398,35 C356.346348,33.3431458 358.576862,32 361.01739,32 C363.457917,32 365.230113,33.3431458 364.975699,35 C364.721286,36.6568542 362.490772,38 359.993708,38 Z M377.195051,38 C374.687467,38 372.815755,36.6568542 373.014466,35 C373.213177,33.3431458 375.361038,32 377.811848,32 C380.262657,32 382.134369,33.3431458 381.992432,35 C381.850496,36.6568542 379.702635,38 377.195051,38 Z M395.398167,38 C392.885261,38 390.917331,36.6568542 391.002674,35 C391.088017,33.3431458 393.148191,32 395.604202,32 C398.060214,32 400.028143,33.3431458 399.999695,35 C399.971248,36.6568542 397.911073,38 395.398167,38 Z M413.601833,38 C411.088927,38 409.028752,36.6568542 409.000305,35 C408.971857,33.3431458 410.939786,32 413.395798,32 C415.851809,32 417.911983,33.3431458 417.997326,35 C418.082669,36.6568542 416.114739,38 413.601833,38 Z M430.804949,38 C428.297365,38 426.149504,36.6568542 426.007568,35 C425.865631,33.3431458 427.737343,32 430.188152,32 C432.638962,32 434.786823,33.3431458 434.985534,35 C435.184245,36.6568542 433.312533,38 430.804949,38 Z M449.006292,38 C446.509228,38 444.278714,36.6568542 444.024301,35 C443.769887,33.3431458 445.542083,32 447.98261,32 C450.423138,32 452.653652,33.3431458 452.964602,35 C453.275552,36.6568542 451.503357,38 449.006292,38 Z M467.204664,38 C464.723091,38 462.415321,36.6568542 462.050114,35 C461.684907,33.3431458 463.355014,32 465.780401,32 C468.205788,32 470.513558,33.3431458 470.934951,35 C471.356343,36.6568542 469.686237,38 467.204664,38 Z M484.398962,38 C481.937554,38 479.558181,36.6568542 479.084483,35 C478.610786,33.3431458 480.176967,32 482.582646,32 C484.988325,32 487.367698,33.3431458 487.897125,35 C488.426551,36.6568542 486.86037,38 484.398962,38 Z M502.588205,38 C500.151275,38 497.706108,36.6568542 497.126771,35 C496.547435,33.3431458 498.008584,32 500.39034,32 C502.772095,32 505.217262,33.3431458 505.851773,35 C506.486284,36.6568542 505.025135,38 502.588205,38 Z M519.771548,38 C517.363004,38 514.857905,36.6568542 514.176253,35 C513.494601,33.3431458 514.850316,32 517.204328,32 C519.558339,32 522.063438,33.3431458 522.799622,35 C523.535807,36.6568542 522.180092,38 519.771548,38 Z M537.948297,38 C535.57161,38 533.012401,36.6568542 532.232143,35 C531.451885,33.3431458 532.702424,32 535.025299,32 C537.348175,32 539.907385,33.3431458 540.741454,35 C541.575523,36.6568542 540.324984,38 537.948297,38 Z M556.117908,38 C553.776095,38 551.168473,36.6568542 550.293621,35 C549.418769,33.3431458 550.564994,32 552.853786,32 C555.142578,32 557.7502,33.3431458 558.678073,35 C559.605947,36.6568542 558.459722,38 556.117908,38 Z M573.977763,38 C571.417339,38 568.472303,36.6568542 567.399841,35 C566.327378,33.3431458 567.486615,32 569.989069,32 C572.491522,32 575.436558,33.3431458 576.566991,35 C577.697424,36.6568542 576.538188,38 573.977763,38 Z M591.149199,38 C588.632708,38 585.645828,36.6568542 584.477816,35 C583.309803,33.3431458 584.356772,32 586.816287,32 C589.275801,32 592.262681,33.3431458 593.48767,35 C594.712658,36.6568542 593.665689,38 591.149199,38 Z M609.311842,38 C606.841149,38 603.817932,36.6568542 602.559298,35 C601.300663,33.3431458 602.237883,32 604.652637,32 C607.06739,32 610.090607,33.3431458 611.405181,35 C612.719755,36.6568542 611.782535,38 609.311842,38 Z M627.46568,38 C625.042199,38 621.987789,36.6568542 620.643465,35 C619.299141,33.3431458 620.129489,32 622.4981,32 C624.86671,32 627.92112,33.3431458 629.320315,35 C630.71951,36.6568542 629.889161,38 627.46568,38 Z M644.610807,38 C642.235538,38 639.154698,36.6568542 637.72956,35 C636.304421,33.3431458 637.031058,32 639.352549,32 C641.674039,32 644.754879,33.3431458 646.233796,35 C647.712713,36.6568542 646.986076,38 644.610807,38 Z M662.522146,38 C659.96307,38 656.549884,36.6568542 654.898582,35 C653.247281,33.3431458 653.936207,32 656.437343,32 C658.938479,32 662.351665,33.3431458 664.060907,35 C665.770149,36.6568542 665.081223,38 662.522146,38 Z M680.663304,38 C678.158268,38 674.725202,36.6568542 672.995337,35 C671.265472,33.3431458 671.847894,32 674.296214,32 C676.744533,32 680.177599,33.3431458 681.964181,35 C683.750763,36.6568542 683.168341,38 680.663304,38 Z M698.795701,38 C696.344703,38 692.895722,36.6568542 691.092186,35 C689.28865,33.3431458 689.768536,32 692.164041,32 C694.559547,32 698.008528,33.3431458 699.867557,35 C701.726586,36.6568542 701.2467,38 698.795701,38 Z M97.2982225,49 C94.8094222,49 94.255842,47.6568542 96.0617666,46 C97.8676911,44.3431458 101.305552,43 103.740445,43 C106.175337,43 106.728917,44.3431458 104.9769,46 C103.224884,47.6568542 99.7870229,49 97.2982225,49 Z M115.430652,49 C112.890173,49 112.23588,47.6568542 113.969249,46 C115.702618,44.3431458 119.122647,43 121.608098,43 C124.09355,43 124.747842,44.3431458 123.069501,46 C121.39116,47.6568542 117.971131,49 115.430652,49 Z M134.571312,49 C131.979348,49 131.22077,47.6568542 132.876981,46 C134.533193,44.3431458 137.931508,43 140.467329,43 C143.003151,43 143.761729,44.3431458 142.16166,46 C140.561591,47.6568542 137.163277,49 134.571312,49 Z M152.720469,49 C150.077519,49 149.211204,47.6568542 150.7855,46 C152.359796,44.3431458 155.732141,43 158.317844,43 C160.903546,43 161.769862,44.3431458 160.252813,46 C158.735764,47.6568542 155.363419,49 152.720469,49 Z M170.878328,49 C168.185238,49 167.207911,47.6568542 168.695407,46 C170.182903,44.3431458 173.524648,43 176.159405,43 C178.794161,43 179.771488,44.3431458 178.342326,46 C176.913163,47.6568542 173.571418,49 170.878328,49 Z M189.7682,49 C187.275471,49 186.283315,47.6568542 187.552158,46 C188.821,44.3431458 191.826585,43 194.26532,43 C196.704055,43 197.696211,44.3431458 196.481362,46 C195.266513,47.6568542 192.260928,49 189.7682,49 Z M208.927803,49 C206.392105,49 205.293797,47.6568542 206.474663,46 C207.65553,44.3431458 210.623876,43 213.10465,43 C215.585424,43 216.683732,44.3431458 215.55779,46 C214.431848,47.6568542 211.463502,49 208.927803,49 Z M227.09541,49 C224.518644,49 223.312055,47.6568542 224.40042,46 C225.488785,44.3431458 228.414714,43 230.935667,43 C233.45662,43 234.663208,44.3431458 233.630657,46 C232.598106,47.6568542 229.672176,49 227.09541,49 Z M246.270845,49 C243.65534,49 242.33876,47.6568542 243.330181,46 C244.321603,44.3431458 247.199669,43 249.758522,43 C252.317375,43 253.633955,44.3431458 252.699186,46 C251.764417,47.6568542 248.886351,49 246.270845,49 Z M264.45381,49 C261.802336,49 260.374535,47.6568542 261.264727,46 C262.154919,44.3431458 264.97945,43 267.573492,43 C270.167535,43 271.595336,44.3431458 270.762575,46 C269.929815,47.6568542 267.105284,49 264.45381,49 Z M283.643872,49 C280.959644,49 279.41994,47.6568542 280.204846,46 C280.989753,44.3431458 283.754909,43 286.380995,43 C289.007082,43 290.546786,44.3431458 289.820021,46 C289.093255,47.6568542 286.328099,49 283.643872,49 Z M301.456412,49 C299.014416,49 297.527901,47.6568542 298.136186,46 C298.744472,44.3431458 301.174333,43 303.563434,43 C305.952535,43 307.43905,44.3431458 306.883659,46 C306.328268,47.6568542 303.898407,49 301.456412,49 Z M320.638568,49 C318.174046,49 316.587269,47.6568542 317.094401,46 C317.601532,44.3431458 319.967258,43 322.378397,43 C324.789537,43 326.376314,44.3431458 325.922565,46 C325.468815,47.6568542 323.103089,49 320.638568,49 Z M338.825188,49 C336.342151,49 334.656252,47.6568542 335.059627,46 C335.463003,44.3431458 337.759302,43 340.188555,43 C342.617808,43 344.303707,44.3431458 343.954115,46 C343.604523,47.6568542 341.308224,49 338.825188,49 Z M358.015393,49 C355.518158,49 353.73492,47.6568542 354.03242,46 C354.32992,44.3431458 356.551651,43 358.994795,43 C361.43794,43 363.221178,44.3431458 362.977769,46 C362.73436,47.6568542 360.512628,49 358.015393,49 Z M376.208207,49 C373.701343,49 371.823193,47.6568542 372.013241,46 C372.203289,44.3431458 374.34555,43 376.798115,43 C379.250679,43 381.12883,44.3431458 380.993081,46 C380.857333,47.6568542 378.715072,49 376.208207,49 Z M395.402575,49 C392.890844,49 390.920839,47.6568542 391.002447,46 C391.084054,44.3431458 393.142266,43 395.599593,43 C398.056919,43 400.026924,44.3431458 399.999722,46 C399.972519,47.6568542 397.914307,49 395.402575,49 Z M413.597425,49 C411.085693,49 409.027481,47.6568542 409.000278,46 C408.973076,44.3431458 410.943081,43 413.400407,43 C415.857734,43 417.915946,44.3431458 417.997553,46 C418.079161,47.6568542 416.109156,49 413.597425,49 Z M432.791793,49 C430.284928,49 428.142667,47.6568542 428.006919,46 C427.87117,44.3431458 429.749321,43 432.201885,43 C434.65445,43 436.796711,44.3431458 436.986759,46 C437.176807,47.6568542 435.298657,49 432.791793,49 Z M450.984607,49 C448.487372,49 446.26564,47.6568542 446.022231,46 C445.778822,44.3431458 447.56206,43 450.005205,43 C452.448349,43 454.67008,44.3431458 454.96758,46 C455.26508,47.6568542 453.481842,49 450.984607,49 Z M469.174812,49 C466.691776,49 464.395477,47.6568542 464.045885,46 C463.696293,44.3431458 465.382192,43 467.811445,43 C470.240698,43 472.536997,44.3431458 472.940373,46 C473.343748,47.6568542 471.657849,49 469.174812,49 Z M488.361432,49 C485.896911,49 483.531185,47.6568542 483.077435,46 C482.623686,44.3431458 484.210463,43 486.621603,43 C489.032742,43 491.398468,44.3431458 491.905599,46 C492.412731,47.6568542 490.825954,49 488.361432,49 Z M506.543588,49 C504.101593,49 501.671732,47.6568542 501.116341,46 C500.56095,44.3431458 502.047465,43 504.436566,43 C506.825667,43 509.255528,44.3431458 509.863814,46 C510.472099,47.6568542 508.985584,49 506.543588,49 Z M525.356128,49 C522.671901,49 519.906745,47.6568542 519.179979,46 C518.453214,44.3431458 519.992918,43 522.619005,43 C525.245091,43 528.010247,44.3431458 528.795154,46 C529.58006,47.6568542 528.040356,49 525.356128,49 Z M544.54619,49 C541.894716,49 539.070185,47.6568542 538.237425,46 C537.404664,44.3431458 538.832465,43 541.426508,43 C544.02055,43 546.845081,44.3431458 547.735273,46 C548.625465,47.6568542 547.197664,49 544.54619,49 Z M562.729155,49 C560.113649,49 557.235583,47.6568542 556.300814,46 C555.366045,44.3431458 556.682625,43 559.241478,43 C561.800331,43 564.678397,44.3431458 565.669819,46 C566.66124,47.6568542 565.34466,49 562.729155,49 Z M581.90459,49 C579.327824,49 576.401894,47.6568542 575.369343,46 C574.336792,44.3431458 575.54338,43 578.064333,43 C580.585286,43 583.511215,44.3431458 584.59958,46 C585.687945,47.6568542 584.481356,49 581.90459,49 Z M600.072197,49 C597.536498,49 594.568152,47.6568542 593.44221,46 C592.316268,44.3431458 593.414576,43 595.89535,43 C598.376124,43 601.34447,44.3431458 602.525337,46 C603.706203,47.6568542 602.607895,49 600.072197,49 Z M618.2318,49 C615.739072,49 612.733487,47.6568542 611.518638,46 C610.303789,44.3431458 611.295945,43 613.73468,43 C616.173415,43 619.179,44.3431458 620.447842,46 C621.716685,47.6568542 620.724529,49 618.2318,49 Z M637.121672,49 C634.428582,49 631.086837,47.6568542 629.657674,46 C628.228512,44.3431458 629.205839,43 631.840595,43 C634.475352,43 637.817097,44.3431458 639.304593,46 C640.792089,47.6568542 639.814762,49 637.121672,49 Z M656.279531,49 C653.636581,49 650.264236,47.6568542 648.747187,46 C647.230138,44.3431458 648.096454,43 650.682156,43 C653.267859,43 656.640204,44.3431458 658.2145,46 C659.788796,47.6568542 658.922481,49 656.279531,49 Z M674.428688,49 C671.836723,49 668.438409,47.6568542 666.83834,46 C665.238271,44.3431458 665.996849,43 668.532671,43 C671.068492,43 674.466807,44.3431458 676.123019,46 C677.77923,47.6568542 677.020652,49 674.428688,49 Z M693.569348,49 C691.028869,49 687.60884,47.6568542 685.930499,46 C684.252158,44.3431458 684.90645,43 687.391902,43 C689.877353,43 693.297382,44.3431458 695.030751,46 C696.76412,47.6568542 696.109827,49 693.569348,49 Z M711.701777,49 C709.212977,49 705.775116,47.6568542 704.0231,46 C702.271083,44.3431458 702.824663,43 705.259555,43 C707.694448,43 711.132309,44.3431458 712.938233,46 C714.744158,47.6568542 714.190578,49 711.701777,49 Z M83.605338,59 C80.8524965,59 80.1729493,57.6568542 82.0875268,56 C84.0021044,54.3431458 87.7394645,53 90.4351544,53 C93.1308443,53 93.8103915,54.3431458 91.9529656,56 C90.0955396,57.6568542 86.3581794,59 83.605338,59 Z M103.520362,59 C100.947529,59 100.225815,57.6568542 101.90837,56 C103.590925,54.3431458 106.997298,53 109.516717,53 C112.036136,53 112.75785,54.3431458 111.128709,56 C109.499569,57.6568542 106.093196,59 103.520362,59 Z M122.660222,59 C120.038348,59 119.214626,57.6568542 120.820386,56 C122.426146,54.3431458 125.809193,53 128.376634,53 C130.944075,53 131.767797,54.3431458 130.21647,56 C128.665142,57.6568542 125.282095,59 122.660222,59 Z M141.808006,59 C139.137741,59 138.208934,57.6568542 139.733457,56 C141.25798,54.3431458 144.613587,53 147.228416,53 C149.843244,53 150.772051,54.3431458 149.302965,56 C147.833879,57.6568542 144.478272,59 141.808006,59 Z M160.963862,59 C158.246174,59 157.209394,57.6568542 158.648148,56 C160.086903,54.3431458 163.410625,53 166.071891,53 C168.733157,53 169.769937,54.3431458 168.387604,56 C167.005272,57.6568542 163.681549,59 160.963862,59 Z M181.127861,59 C178.364074,59 177.216678,57.6568542 178.56508,56 C179.913482,54.3431458 183.200554,53 185.906961,53 C188.613369,53 189.760764,54.3431458 188.469742,56 C187.178719,57.6568542 183.891647,59 181.127861,59 Z M200.299993,59 C197.491811,59 196.23146,57.6568542 197.484921,56 C198.738381,54.3431458 201.98373,53 204.733611,53 C207.483493,53 208.743843,54.3431458 207.548683,56 C206.353523,57.6568542 203.108174,59 200.299993,59 Z M220.163772,59 C217.572436,59 216.322183,57.6568542 217.371256,56 C218.420328,54.3431458 221.32785,53 223.865388,53 C226.402926,53 227.653178,54.3431458 226.657904,56 C225.662631,57.6568542 222.755109,59 220.163772,59 Z M239.334649,59 C236.707165,59 235.351031,57.6568542 236.305639,56 C237.260247,54.3431458 240.119886,53 242.692821,53 C245.265755,53 246.621889,54.3431458 245.72183,56 C244.821771,57.6568542 241.962133,59 239.334649,59 Z M258.512318,59 C255.851373,59 254.388402,57.6568542 255.244679,56 C256.100956,54.3431458 258.907444,53 261.513144,53 C264.118845,53 265.581816,54.3431458 264.780783,56 C263.979749,57.6568542 261.173262,59 258.512318,59 Z M277.696357,59 C275.00503,59 273.434763,57.6568542 274.189069,56 C274.943374,54.3431458 277.691316,53 280.326768,53 C282.96222,53 284.532487,54.3431458 283.834056,56 C283.135625,57.6568542 280.387683,59 277.696357,59 Z M297.886226,59 C295.167975,59 293.490503,57.6568542 294.139487,56 C294.788472,54.3431458 297.472407,53 300.134225,53 C302.796043,53 304.473515,54.3431458 303.880964,56 C303.288413,57.6568542 300.604477,59 297.886226,59 Z M317.081267,59 C314.339911,59 312.555907,57.6568542 313.096582,56 C313.637256,54.3431458 316.25173,53 318.936172,53 C321.620615,53 323.404619,54.3431458 322.920858,56 C322.437097,57.6568542 319.822623,59 317.081267,59 Z M336.280708,59 C333.520399,59 331.631148,57.6568542 332.060948,56 C332.490747,54.3431458 335.030385,53 337.733387,53 C340.436389,53 342.32564,54.3431458 341.953148,56 C341.580655,57.6568542 339.041017,59 336.280708,59 Z M355.483673,59 C352.708853,59 350.716269,57.6568542 351.033113,56 C351.349956,54.3431458 353.809544,53 356.526756,53 C359.243968,53 361.236552,54.3431458 360.977317,56 C360.718082,57.6568542 358.258494,59 355.483673,59 Z M374.689197,59 C371.904548,59 369.811174,57.6568542 370.013516,56 C370.215858,54.3431458 372.590427,53 375.317264,53 C378.044101,53 380.137474,54.3431458 379.992944,56 C379.848415,57.6568542 377.473846,59 374.689197,59 Z M394.896242,59 C392.106629,59 389.915624,57.6568542 390.002497,56 C390.089369,54.3431458 392.374272,53 395.105971,53 C397.837669,53 400.028674,54.3431458 399.999716,56 C399.970759,57.6568542 397.685856,59 394.896242,59 Z M414.103758,59 C411.314144,59 409.029241,57.6568542 409.000284,56 C408.971326,54.3431458 411.162331,53 413.894029,53 C416.625728,53 418.910631,54.3431458 418.997503,56 C419.084376,57.6568542 416.893371,59 414.103758,59 Z M433.310803,59 C430.526154,59 428.151585,57.6568542 428.007056,56 C427.862526,54.3431458 429.955899,53 432.682736,53 C435.409573,53 437.784142,54.3431458 437.986484,56 C438.188826,57.6568542 436.095452,59 433.310803,59 Z M452.516327,59 C449.741506,59 447.281918,57.6568542 447.022683,56 C446.763448,54.3431458 448.756032,53 451.473244,53 C454.190456,53 456.650044,54.3431458 456.966887,56 C457.283731,57.6568542 455.291147,59 452.516327,59 Z M472.719292,59 C469.958983,59 467.419345,57.6568542 467.046852,56 C466.67436,54.3431458 468.563611,53 471.266613,53 C473.969615,53 476.509253,54.3431458 476.939052,56 C477.368852,57.6568542 475.479601,59 472.719292,59 Z M491.918733,59 C489.177377,59 486.562903,57.6568542 486.079142,56 C485.595381,54.3431458 487.379385,53 490.063828,53 C492.74827,53 495.362744,54.3431458 495.903418,56 C496.444093,57.6568542 494.660089,59 491.918733,59 Z M511.113774,59 C508.395523,59 505.711587,57.6568542 505.119036,56 C504.526485,54.3431458 506.203957,53 508.865775,53 C511.527593,53 514.211528,54.3431458 514.860513,56 C515.509497,57.6568542 513.832025,59 511.113774,59 Z M530.303643,59 C527.612317,59 524.864375,57.6568542 524.165944,56 C523.467513,54.3431458 525.03778,53 527.673232,53 C530.308684,53 533.056626,54.3431458 533.810931,56 C534.565237,57.6568542 532.99497,59 530.303643,59 Z M550.487682,59 C547.826738,59 545.020251,57.6568542 544.219217,56 C543.418184,54.3431458 544.881155,53 547.486856,53 C550.092556,53 552.899044,54.3431458 553.755321,56 C554.611598,57.6568542 553.148627,59 550.487682,59 Z M569.665351,59 C567.037867,59 564.178229,57.6568542 563.27817,56 C562.378111,54.3431458 563.734245,53 566.307179,53 C568.880114,53 571.739753,54.3431458 572.694361,56 C573.648969,57.6568542 572.292835,59 569.665351,59 Z M588.836228,59 C586.244891,59 583.337369,57.6568542 582.342096,56 C581.346822,54.3431458 582.597074,53 585.134612,53 C587.67215,53 590.579672,54.3431458 591.628744,56 C592.677817,57.6568542 591.427564,59 588.836228,59 Z M608.700007,59 C605.891826,59 602.646477,57.6568542 601.451317,56 C600.256157,54.3431458 601.516507,53 604.266389,53 C607.01627,53 610.261619,54.3431458 611.515079,56 C612.76854,57.6568542 611.508189,59 608.700007,59 Z M627.872139,59 C625.108353,59 621.821281,57.6568542 620.530258,56 C619.239236,54.3431458 620.386631,53 623.093039,53 C625.799446,53 629.086518,54.3431458 630.43492,56 C631.783322,57.6568542 630.635926,59 627.872139,59 Z M647.036138,59 C644.318451,59 640.994728,57.6568542 639.612396,56 C638.230063,54.3431458 639.266843,53 641.928109,53 C644.589375,53 647.913097,54.3431458 649.351852,56 C650.790606,57.6568542 649.753826,59 647.036138,59 Z M667.191994,59 C664.521728,59 661.166121,57.6568542 659.697035,56 C658.227949,54.3431458 659.156756,53 661.771584,53 C664.386413,53 667.74202,54.3431458 669.266543,56 C670.791066,57.6568542 669.862259,59 667.191994,59 Z M686.339778,59 C683.717905,59 680.334858,57.6568542 678.78353,56 C677.232203,54.3431458 678.055925,53 680.623366,53 C683.190807,53 686.573854,54.3431458 688.179614,56 C689.785374,57.6568542 688.961652,59 686.339778,59 Z M705.479638,59 C702.906804,59 699.500431,57.6568542 697.871291,56 C696.24215,54.3431458 696.963864,53 699.483283,53 C702.002702,53 705.409075,54.3431458 707.09163,56 C708.774185,57.6568542 708.052471,59 705.479638,59 Z M725.394662,59 C722.641821,59 718.90446,57.6568542 717.047034,56 C715.189608,54.3431458 715.869156,53 718.564846,53 C721.260535,53 724.997896,54.3431458 726.912473,56 C728.827051,57.6568542 728.147503,59 725.394662,59 Z M69.6993704,70 C66.9118623,70 66.1611027,68.6568542 68.0225017,67 C69.8839008,65.3431458 73.6075409,64 76.3394848,64 C79.0714287,64 79.8221884,65.3431458 78.0163535,67 C76.2105186,68.6568542 72.4868784,70 69.6993704,70 Z M90.8428991,70 C88.0039021,70 87.1475236,68.6568542 88.9301242,67 C90.7127247,65.3431458 94.413394,64 97.1958004,64 C99.9782068,64 100.834585,65.3431458 99.1085753,67 C97.3825653,68.6568542 93.681896,70 90.8428991,70 Z M110.994326,70 C108.104376,70 107.13923,68.6568542 108.838611,67 C110.537992,65.3431458 114.211681,64 117.044025,64 C119.876368,64 120.841515,65.3431458 119.199739,67 C117.557964,68.6568542 113.884275,70 110.994326,70 Z M130.890996,70 C128.195935,70 127.208775,68.6568542 128.686113,67 C130.163451,65.3431458 133.5023,64 136.14364,64 C138.78498,64 139.772139,65.3431458 138.348523,67 C136.924906,68.6568542 133.586058,70 130.890996,70 Z M151.044678,70 C148.304742,70 147.212596,68.6568542 148.605301,67 C149.998006,65.3431458 153.303898,64 155.989218,64 C158.674538,64 159.766685,65.3431458 158.428595,67 C157.090506,68.6568542 153.784614,70 151.044678,70 Z M171.205872,70 C168.422453,70 167.223019,68.6568542 168.526861,67 C169.830703,65.3431458 173.099106,64 175.827042,64 C178.554978,64 179.754412,65.3431458 178.506053,67 C177.257693,68.6568542 173.989291,70 171.205872,70 Z M191.374529,70 C188.549365,70 187.240638,68.6568542 188.451405,67 C189.662173,65.3431458 192.88829,64 195.657139,64 C198.425989,64 199.734716,65.3431458 198.580263,67 C197.425811,68.6568542 194.199694,70 191.374529,70 Z M211.550513,70 C208.685705,70 207.266028,68.6568542 208.379575,67 C209.493122,65.3431458 212.671924,64 215.479627,64 C218.287331,64 219.707008,65.3431458 218.650565,67 C217.594123,68.6568542 214.415321,70 211.550513,70 Z M231.73359,70 C228.831615,70 227.299732,68.6568542 228.312035,67 C229.324337,65.3431458 232.450593,64 235.294723,64 C238.138852,64 239.670735,65.3431458 238.716278,67 C237.761821,68.6568542 234.635566,70 231.73359,70 Z M252.566748,70 C249.897398,70 248.402044,68.6568542 249.226782,67 C250.051519,65.3431458 252.840903,64 255.457045,64 C258.073186,64 259.56854,65.3431458 258.797011,67 C258.025483,68.6568542 255.236099,70 252.566748,70 Z M272.74506,70 C270.047459,70 268.449098,68.6568542 269.17502,67 C269.900942,65.3431458 272.632665,64 275.276493,64 C277.920322,64 279.518684,65.3431458 278.846534,67 C278.174383,68.6568542 275.442661,70 272.74506,70 Z M292.9286,70 C290.206023,70 288.504873,68.6568542 289.128977,67 C289.753081,65.3431458 292.422107,64 295.090415,64 C297.758723,64 299.459872,65.3431458 298.890038,67 C298.320205,68.6568542 295.651178,70 292.9286,70 Z M313.116763,70 C310.372796,70 308.569602,68.6568542 309.089216,67 C309.60883,65.3431458 312.210146,64 314.899416,64 C317.588687,64 319.391882,65.3431458 318.926964,67 C318.462046,68.6568542 315.86073,70 313.116763,70 Z M333.308846,70 C330.547363,70 328.643412,68.6568542 329.056253,67 C329.469093,65.3431458 331.997767,64 334.704205,64 C337.410642,64 339.314593,65.3431458 338.956798,67 C338.599003,68.6568542 336.070329,70 333.308846,70 Z M353.504061,70 C350.729186,70 348.726324,68.6568542 349.030541,67 C349.334759,65.3431458 351.786017,64 354.505579,64 C357.225141,64 359.228004,65.3431458 358.979098,67 C358.730193,68.6568542 356.278935,70 353.504061,70 Z M373.701545,70 C370.91761,70 368.818235,68.6568542 369.01246,67 C369.206686,65.3431458 371.575976,64 374.304418,64 C377.032859,64 379.132234,65.3431458 378.993502,67 C378.854769,68.6568542 376.485479,70 373.701545,70 Z M393.900376,70 C391.111868,70 388.918925,68.6568542 389.002301,67 C389.085677,65.3431458 391.368739,64 394.101664,64 C396.834588,64 399.027531,65.3431458 398.999739,67 C398.971947,68.6568542 396.688884,70 393.900376,70 Z M414.099624,70 C411.311116,70 409.028053,68.6568542 409.000261,67 C408.972469,65.3431458 411.165412,64 413.898336,64 C416.631261,64 418.914323,65.3431458 418.997699,67 C419.081075,68.6568542 416.888132,70 414.099624,70 Z M434.298455,70 C431.514521,70 429.145231,68.6568542 429.006498,67 C428.867766,65.3431458 430.967141,64 433.695582,64 C436.424024,64 438.793314,65.3431458 438.98754,67 C439.181765,68.6568542 437.08239,70 434.298455,70 Z M454.495939,70 C451.721065,70 449.269807,68.6568542 449.020902,67 C448.771996,65.3431458 450.774859,64 453.494421,64 C456.213983,64 458.665241,65.3431458 458.969459,67 C459.273676,68.6568542 457.270814,70 454.495939,70 Z M475.691154,70 C472.929671,70 470.400997,68.6568542 470.043202,67 C469.685407,65.3431458 471.589358,64 474.295795,64 C477.002233,64 479.530907,65.3431458 479.943747,67 C480.356588,68.6568542 478.452637,70 475.691154,70 Z M495.883237,70 C493.13927,70 490.537954,68.6568542 490.073036,67 C489.608118,65.3431458 491.411313,64 494.100584,64 C496.789854,64 499.39117,65.3431458 499.910784,67 C500.430398,68.6568542 498.627204,70 495.883237,70 Z M516.0714,70 C513.348822,70 510.679795,68.6568542 510.109962,67 C509.540128,65.3431458 511.241277,64 513.909585,64 C516.577893,64 519.246919,65.3431458 519.871023,67 C520.495127,68.6568542 518.793977,70 516.0714,70 Z M536.25494,70 C533.557339,70 530.825617,68.6568542 530.153466,67 C529.481316,65.3431458 531.079678,64 533.723507,64 C536.367335,64 539.099058,65.3431458 539.82498,67 C540.550902,68.6568542 538.952541,70 536.25494,70 Z M556.433252,70 C553.763901,70 550.974517,68.6568542 550.202989,67 C549.43146,65.3431458 550.926814,64 553.542955,64 C556.159097,64 558.948481,65.3431458 559.773218,67 C560.597956,68.6568542 559.102602,70 556.433252,70 Z M576.26641,70 C573.364434,70 570.238179,68.6568542 569.283722,67 C568.329265,65.3431458 569.861148,64 572.705277,64 C575.549407,64 578.675663,65.3431458 579.687965,67 C580.700268,68.6568542 579.168385,70 576.26641,70 Z M596.449487,70 C593.584679,70 590.405877,68.6568542 589.349435,67 C588.292992,65.3431458 589.712669,64 592.520373,64 C595.328076,64 598.506878,65.3431458 599.620425,67 C600.733972,68.6568542 599.314295,70 596.449487,70 Z M616.625471,70 C613.800306,70 610.574189,68.6568542 609.419737,67 C608.265284,65.3431458 609.574011,64 612.342861,64 C615.11171,64 618.337827,65.3431458 619.548595,67 C620.759362,68.6568542 619.450635,70 616.625471,70 Z M636.794128,70 C634.010709,70 630.742307,68.6568542 629.493947,67 C628.245588,65.3431458 629.445022,64 632.172958,64 C634.900894,64 638.169297,65.3431458 639.473139,67 C640.776981,68.6568542 639.577547,70 636.794128,70 Z M657.955322,70 C655.215386,70 651.909494,68.6568542 650.571405,67 C649.233315,65.3431458 650.325462,64 653.010782,64 C655.696102,64 659.001994,65.3431458 660.394699,67 C661.787404,68.6568542 660.695258,70 657.955322,70 Z M678.109004,70 C675.413942,70 672.075094,68.6568542 670.651477,67 C669.227861,65.3431458 670.21502,64 672.85636,64 C675.4977,64 678.836549,65.3431458 680.313887,67 C681.791225,68.6568542 680.804065,70 678.109004,70 Z M698.005674,70 C695.115725,70 691.442036,68.6568542 689.800261,67 C688.158485,65.3431458 689.123632,64 691.955975,64 C694.788319,64 698.462008,65.3431458 700.161389,67 C701.86077,68.6568542 700.895624,70 698.005674,70 Z M718.157101,70 C715.318104,70 711.617435,68.6568542 709.891425,67 C708.165415,65.3431458 709.021793,64 711.8042,64 C714.586606,64 718.287275,65.3431458 720.069876,67 C721.852476,68.6568542 720.996098,70 718.157101,70 Z M738.30063,70 C735.513122,70 731.789481,68.6568542 729.983647,67 C728.177812,65.3431458 728.928571,64 731.660515,64 C734.392459,64 738.116099,65.3431458 739.977498,67 C741.838897,68.6568542 741.088138,70 738.30063,70 Z M56.7893899,81 C53.9700362,81 53.1521878,79.6568542 54.9626744,78 C56.773161,76.3431458 60.4825766,75 63.2478859,75 C66.0131953,75 66.8310437,76.3431458 65.0746014,78 C63.3181592,79.6568542 59.6087436,81 56.7893899,81 Z M77.9320479,81 C75.0635031,81 74.1422331,79.6568542 75.8743338,78 C77.6064345,76.3431458 81.2914186,75 84.1049761,75 C86.9185335,75 87.8398035,76.3431458 86.1626901,78 C84.4855767,79.6568542 80.8005927,81 77.9320479,81 Z M99.0821052,81 C96.1650269,81 95.1375094,79.6568542 96.7870805,78 C98.4366516,76.3431458 102.093322,75 104.954483,75 C107.815643,75 108.843161,76.3431458 107.249507,78 C105.655854,79.6568542 101.999183,81 99.0821052,81 Z M120.239678,81 C117.275004,81 116.138582,79.6568542 117.701407,78 C119.264233,76.3431458 122.888426,75 125.79627,75 C128.704113,75 129.840535,76.3431458 128.33454,78 C126.828544,79.6568542 123.204351,81 120.239678,81 Z M141.404823,81 C138.393798,81 137.146027,79.6568542 138.61785,78 C140.089673,76.3431458 143.67695,75 146.630258,75 C149.583565,75 150.831335,76.3431458 149.417231,78 C148.003126,79.6568542 144.415849,81 141.404823,81 Z M162.279406,81 C159.478247,81 158.230388,79.6568542 159.492235,78 C160.754081,76.3431458 164.00427,75 166.751733,75 C169.499197,75 170.747056,76.3431458 169.538905,78 C168.330754,79.6568542 165.080566,81 162.279406,81 Z M183.444581,81 C180.604122,81 179.250477,79.6568542 180.421129,78 C181.591781,76.3431458 184.799289,75 187.585299,75 C190.371308,75 191.724954,76.3431458 190.60875,78 C189.492547,79.6568542 186.285039,81 183.444581,81 Z M204.616455,81 C201.738778,81 200.27796,79.6568542 201.353626,78 C202.429293,76.3431458 205.589393,75 208.411907,75 C211.234421,75 212.69524,76.3431458 211.674736,78 C210.654232,79.6568542 207.494132,81 204.616455,81 Z M225.794787,81 C222.882309,81 221.313306,79.6568542 222.290322,78 C223.267339,76.3431458 226.375138,75 229.231787,75 C232.088436,75 233.657438,76.3431458 232.736251,78 C231.815065,79.6568542 228.707265,81 225.794787,81 Z M245.979244,81 C243.034719,81 241.356939,79.6568542 242.231818,78 C243.106696,76.3431458 246.157179,75 249.04526,75 C251.933342,75 253.611122,76.3431458 252.792687,78 C251.974252,79.6568542 248.923769,81 245.979244,81 Z M267.169399,81 C264.195914,81 262.40922,79.6568542 263.178705,78 C263.948191,76.3431458 266.936261,75 269.852747,75 C272.769233,75 274.555927,76.3431458 273.84344,78 C273.130954,79.6568542 270.142884,81 267.169399,81 Z M288.36473,81 C285.365695,81 283.47044,79.6568542 284.13156,78 C284.79268,76.3431458 287.713219,75 290.654765,75 C293.596312,75 295.491567,76.3431458 294.887936,78 C294.284304,79.6568542 291.363766,81 288.36473,81 Z M309.564622,81 C306.543746,81 304.540802,79.6568542 305.090922,78 C305.641042,76.3431458 308.488964,75 311.451933,75 C314.414901,75 316.417845,76.3431458 315.925632,78 C315.43342,79.6568542 312.585498,81 309.564622,81 Z M330.768372,81 C327.729638,81 325.620413,79.6568542 326.057286,78 C326.494158,76.3431458 329.264473,75 332.244957,75 C335.225441,75 337.334666,76.3431458 336.956043,78 C336.57742,79.6568542 333.807105,81 330.768372,81 Z M351.522906,81 C348.748025,81 346.735702,79.6568542 347.028258,78 C347.320813,76.3431458 349.764341,75 352.48603,75 C355.207719,75 357.220041,76.3431458 356.980678,78 C356.741314,79.6568542 354.297787,81 351.522906,81 Z M372.71295,81 C369.92969,81 367.82479,79.6568542 368.011524,78 C368.198257,76.3431458 370.562662,75 373.292569,75 C376.022476,75 378.127377,76.3431458 377.993995,78 C377.860614,79.6568542 375.49621,81 372.71295,81 Z M393.904193,81 C391.116707,81 388.921977,79.6568542 389.002127,78 C389.082277,76.3431458 391.36364,75 394.097693,75 C396.831746,75 399.026475,76.3431458 398.999759,78 C398.973042,79.6568542 396.691679,81 393.904193,81 Z M415.095807,81 C412.308321,81 410.026958,79.6568542 410.000241,78 C409.973525,76.3431458 412.168254,75 414.902307,75 C417.63636,75 419.917723,76.3431458 419.997873,78 C420.078023,79.6568542 417.883293,81 415.095807,81 Z M436.28705,81 C433.50379,81 431.139386,79.6568542 431.006005,78 C430.872623,76.3431458 432.977524,75 435.707431,75 C438.437338,75 440.801743,76.3431458 440.988476,78 C441.17521,79.6568542 439.07031,81 436.28705,81 Z M457.477094,81 C454.702213,81 452.258686,79.6568542 452.019322,78 C451.779959,76.3431458 453.792281,75 456.51397,75 C459.235659,75 461.679187,76.3431458 461.971742,78 C462.264298,79.6568542 460.251975,81 457.477094,81 Z M478.231628,81 C475.192895,81 472.42258,79.6568542 472.043957,78 C471.665334,76.3431458 473.774559,75 476.755043,75 C479.735527,75 482.505842,76.3431458 482.942714,78 C483.379587,79.6568542 481.270362,81 478.231628,81 Z M499.435378,81 C496.414502,81 493.56658,79.6568542 493.074368,78 C492.582155,76.3431458 494.585099,75 497.548067,75 C500.511036,75 503.358958,76.3431458 503.909078,78 C504.459198,79.6568542 502.456254,81 499.435378,81 Z M520.63527,81 C517.636234,81 514.715696,79.6568542 514.112064,78 C513.508433,76.3431458 515.403688,75 518.345235,75 C521.286781,75 524.20732,76.3431458 524.86844,78 C525.52956,79.6568542 523.634305,81 520.63527,81 Z M540.830601,81 C537.857116,81 534.869046,79.6568542 534.15656,78 C533.444073,76.3431458 535.230767,75 538.147253,75 C541.063739,75 544.051809,76.3431458 544.821295,78 C545.59078,79.6568542 543.804086,81 540.830601,81 Z M562.020756,81 C559.076231,81 556.025748,79.6568542 555.207313,78 C554.388878,76.3431458 556.066658,75 558.95474,75 C561.842821,75 564.893304,76.3431458 565.768182,78 C566.643061,79.6568542 564.965281,81 562.020756,81 Z M583.205213,81 C580.292735,81 577.184935,79.6568542 576.263749,78 C575.342562,76.3431458 576.911564,75 579.768213,75 C582.624862,75 585.732661,76.3431458 586.709678,78 C587.686694,79.6568542 586.117691,81 583.205213,81 Z M604.383545,81 C601.505868,81 598.345768,79.6568542 597.325264,78 C596.30476,76.3431458 597.765579,75 600.588093,75 C603.410607,75 606.570707,76.3431458 607.646374,78 C608.72204,79.6568542 607.261222,81 604.383545,81 Z M625.555419,81 C622.714961,81 619.507453,79.6568542 618.39125,78 C617.275046,76.3431458 618.628692,75 621.414701,75 C624.200711,75 627.408219,76.3431458 628.578871,78 C629.749523,79.6568542 628.395878,81 625.555419,81 Z M646.720594,81 C643.919434,81 640.669246,79.6568542 639.461095,78 C638.252944,76.3431458 639.500803,75 642.248267,75 C644.99573,75 648.245919,76.3431458 649.507765,78 C650.769612,79.6568542 649.521753,81 646.720594,81 Z M667.595177,81 C664.584151,81 660.996874,79.6568542 659.582769,78 C658.168665,76.3431458 659.416435,75 662.369742,75 C665.32305,75 668.910327,76.3431458 670.38215,78 C671.853973,79.6568542 670.606202,81 667.595177,81 Z M688.760322,81 C685.795649,81 682.171456,79.6568542 680.66546,78 C679.159465,76.3431458 680.295887,75 683.20373,75 C686.111574,75 689.735767,76.3431458 691.298593,78 C692.861418,79.6568542 691.724996,81 688.760322,81 Z M709.917895,81 C707.000817,81 703.344146,79.6568542 701.750493,78 C700.156839,76.3431458 701.184357,75 704.045517,75 C706.906678,75 710.563348,76.3431458 712.21292,78 C713.862491,79.6568542 712.834973,81 709.917895,81 Z M731.067952,81 C728.199407,81 724.514423,79.6568542 722.83731,78 C721.160196,76.3431458 722.081466,75 724.895024,75 C727.708581,75 731.393565,76.3431458 733.125666,78 C734.857767,79.6568542 733.936497,81 731.067952,81 Z M752.21061,81 C749.391256,81 745.681841,79.6568542 743.925399,78 C742.168956,76.3431458 742.986805,75 745.752114,75 C748.517423,75 752.226839,76.3431458 754.037326,78 C755.847812,79.6568542 755.029964,81 752.21061,81 Z M43.1151782,92 C40.0291434,92 39.0746185,90.6568542 40.9831871,89 C42.8917556,87.3431458 46.8944965,86 49.9235591,86 C52.9526217,86 53.9071467,87.3431458 52.0555503,89 C50.2039539,90.6568542 46.201213,92 43.1151782,92 Z M65.2685552,92 C62.1316083,92 61.0674419,90.6568542 62.8916731,89 C64.7159042,87.3431458 68.6907866,86 71.7698214,86 C74.8488562,86 75.9130226,87.3431458 74.1467036,89 C72.3803845,90.6568542 68.4055021,92 65.2685552,92 Z M87.1656364,92 C84.2237539,92 83.137705,90.6568542 84.7398782,89 C86.3420515,87.3431458 89.9817088,86 92.8692804,86 C95.7568519,86 96.8429008,87.3431458 95.2950385,89 C93.7471762,90.6568542 90.1075189,92 87.1656364,92 Z M109.321151,92 C106.334048,92 105.141896,90.6568542 106.658405,89 C108.174914,87.3431458 111.781109,86 114.713066,86 C117.645023,86 118.837174,87.3431458 117.375811,89 C115.914448,90.6568542 112.308254,92 109.321151,92 Z M131.483694,92 C128.452671,92 127.152268,90.6568542 128.579161,89 C130.006054,87.3431458 133.574547,86 136.549613,86 C139.524678,86 140.825082,87.3431458 139.454145,89 C138.083209,90.6568542 134.514716,92 131.483694,92 Z M152.653225,92 C149.579883,92 148.169332,90.6568542 149.502672,89 C150.836013,87.3431458 154.36234,86 157.378944,86 C160.395549,86 161.806099,87.3431458 160.529497,89 C159.252895,90.6568542 155.726568,92 152.653225,92 Z M174.829637,92 C171.715887,92 170.193591,90.6568542 171.429494,89 C172.665397,87.3431458 176.144887,86 179.201154,86 C182.25742,86 183.779716,87.3431458 182.601297,89 C181.422878,90.6568542 177.943387,92 174.829637,92 Z M196.678348,92 C193.789085,92 192.29006,90.6568542 193.330181,89 C194.370301,87.3431458 197.512455,86 200.348378,86 C203.184301,86 204.683327,87.3431458 203.696546,89 C202.709764,90.6568542 199.56761,92 196.678348,92 Z M218.852087,92 C215.930183,92 214.326765,90.6568542 215.270752,89 C216.214739,87.3431458 219.304934,86 222.172896,86 C225.040857,86 226.644275,87.3431458 225.75423,89 C224.864185,90.6568542 221.77399,92 218.852087,92 Z M240.031392,92 C237.079498,92 235.371267,90.6568542 236.215952,89 C237.060636,87.3431458 240.094194,86 242.991593,86 C245.888991,86 247.597222,87.3431458 246.807033,89 C246.016844,90.6568542 242.983286,92 240.031392,92 Z M262.215858,92 C259.236919,92 257.423872,90.6568542 258.166306,89 C258.90874,87.3431458 261.880926,86 264.80487,86 C267.728815,86 269.541861,87.3431458 268.854423,89 C268.166984,90.6568542 265.194798,92 262.215858,92 Z M284.404997,92 C281.40224,92 279.48482,90.6568542 280.12232,89 C280.75982,87.3431458 283.665893,86 286.613215,86 C289.560537,86 291.477956,87.3431458 290.895891,89 C290.313826,90.6568542 287.407754,92 284.404997,92 Z M305.598241,92 C302.575159,92 300.554274,90.6568542 301.084469,89 C301.614665,87.3431458 304.449922,86 307.417195,86 C310.384467,86 312.405352,87.3431458 311.930967,89 C311.456582,90.6568542 308.621324,92 305.598241,92 Z M327.79495,92 C324.755272,92 322.632311,90.6568542 323.053184,89 C323.474057,87.3431458 326.233896,86 329.217458,86 C332.201019,86 334.32398,87.3431458 333.959223,89 C333.594467,90.6568542 330.834628,92 327.79495,92 Z M349.994414,92 C346.942079,92 344.718917,90.6568542 345.028842,89 C345.338768,87.3431458 348.018737,86 351.014722,86 C354.010707,86 356.233869,87.3431458 355.980294,89 C355.726719,90.6568542 353.046749,92 349.994414,92 Z M371.195868,92 C368.134985,92 365.81398,90.6568542 366.011757,89 C366.209535,87.3431458 368.805392,86 371.809767,86 C374.814143,86 377.135148,87.3431458 376.993878,89 C376.852609,90.6568542 374.256751,92 371.195868,92 Z M393.398501,92 C390.333309,92 387.917289,90.6568542 388.00217,89 C388.087051,87.3431458 390.594817,86 393.603423,86 C396.612028,86 399.028048,87.3431458 398.999754,89 C398.97146,90.6568542 396.463694,92 393.398501,92 Z M415.601499,92 C412.536306,92 410.02854,90.6568542 410.000246,89 C409.971952,87.3431458 412.387972,86 415.396577,86 C418.405183,86 420.912949,87.3431458 420.99783,89 C421.082711,90.6568542 418.666691,92 415.601499,92 Z M436.804132,92 C433.743249,92 431.147391,90.6568542 431.006122,89 C430.864852,87.3431458 433.185857,86 436.190233,86 C439.194608,86 441.790465,87.3431458 441.988243,89 C442.18602,90.6568542 439.865015,92 436.804132,92 Z M459.005586,92 C455.953251,92 453.273281,90.6568542 453.019706,89 C452.766131,87.3431458 454.989293,86 457.985278,86 C460.981263,86 463.661232,87.3431458 463.971158,89 C464.281083,90.6568542 462.057921,92 459.005586,92 Z M481.20505,92 C478.165372,92 475.405533,90.6568542 475.040777,89 C474.67602,87.3431458 476.798981,86 479.782542,86 C482.766104,86 485.525943,87.3431458 485.946816,89 C486.367689,90.6568542 484.244728,92 481.20505,92 Z M502.401759,92 C499.378676,92 496.543418,90.6568542 496.069033,89 C495.594648,87.3431458 497.615533,86 500.582805,86 C503.550078,86 506.385335,87.3431458 506.915531,89 C507.445726,90.6568542 505.424841,92 502.401759,92 Z M524.595003,92 C521.592246,92 518.686174,90.6568542 518.104109,89 C517.522044,87.3431458 519.439463,86 522.386785,86 C525.334107,86 528.24018,87.3431458 528.87768,89 C529.51518,90.6568542 527.59776,92 524.595003,92 Z M546.784142,92 C543.805202,92 540.833016,90.6568542 540.145577,89 C539.458139,87.3431458 541.271185,86 544.19513,86 C547.119074,86 550.09126,87.3431458 550.833694,89 C551.576128,90.6568542 549.763081,92 546.784142,92 Z M567.968608,92 C565.016714,92 561.983156,90.6568542 561.192967,89 C560.402778,87.3431458 562.111009,86 565.008407,86 C567.905806,86 570.939364,87.3431458 571.784048,89 C572.628733,90.6568542 570.920502,92 567.968608,92 Z M590.147913,92 C587.22601,92 584.135815,90.6568542 583.24577,89 C582.355725,87.3431458 583.959143,86 586.827104,86 C589.695066,86 592.785261,87.3431458 593.729248,89 C594.673235,90.6568542 593.069817,92 590.147913,92 Z M612.321652,92 C609.43239,92 606.290236,90.6568542 605.303454,89 C604.316673,87.3431458 605.815699,86 608.651622,86 C611.487545,86 614.629699,87.3431458 615.669819,89 C616.70994,90.6568542 615.210915,92 612.321652,92 Z M634.170363,92 C631.056613,92 627.577122,90.6568542 626.398703,89 C625.220284,87.3431458 626.74258,86 629.798846,86 C632.855113,86 636.334603,87.3431458 637.570506,89 C638.806409,90.6568542 637.284113,92 634.170363,92 Z M656.346775,92 C653.273432,92 649.747105,90.6568542 648.470503,89 C647.193901,87.3431458 648.604451,86 651.621056,86 C654.63766,86 658.163987,87.3431458 659.497328,89 C660.830668,90.6568542 659.420117,92 656.346775,92 Z M677.516306,92 C674.485284,92 670.916791,90.6568542 669.545855,89 C668.174918,87.3431458 669.475322,86 672.450387,86 C675.425453,86 678.993946,87.3431458 680.420839,89 C681.847732,90.6568542 680.547329,92 677.516306,92 Z M699.678849,92 C696.691746,92 693.085552,90.6568542 691.624189,89 C690.162826,87.3431458 691.354977,86 694.286934,86 C697.218891,86 700.825086,87.3431458 702.341595,89 C703.858104,90.6568542 702.665952,92 699.678849,92 Z M721.834364,92 C718.892481,92 715.252824,90.6568542 713.704961,89 C712.157099,87.3431458 713.243148,86 716.13072,86 C719.018291,86 722.657948,87.3431458 724.260122,89 C725.862295,90.6568542 724.776246,92 721.834364,92 Z M743.731445,92 C740.594498,92 736.619615,90.6568542 734.853296,89 C733.086977,87.3431458 734.151144,86 737.230179,86 C740.309213,86 744.284096,87.3431458 746.108327,89 C747.932558,90.6568542 746.868392,92 743.731445,92 Z M764.884822,92 C761.798787,92 757.796046,90.6568542 755.94445,89 C754.092853,87.3431458 755.047378,86 758.076441,86 C761.105503,86 765.108244,87.3431458 767.016813,89 C768.925382,90.6568542 767.970857,92 764.884822,92 Z M30.2045082,102 C27.0892414,102 26.0700605,100.656854 27.9281039,99 C29.7861474,97.3431458 33.7728495,96 36.8326523,96 C39.8924551,96 40.911636,97.3431458 39.1090566,99 C37.3064771,100.656854 33.319775,102 30.2045082,102 Z M53.3565301,102 C50.1926174,102 49.0661926,100.656854 50.8405898,99 C52.614987,97.3431458 56.5726136,96 59.6801962,96 C62.7877788,96 63.9142036,97.3431458 62.1961365,99 C60.4780693,100.656854 56.5204427,102 53.3565301,102 Z M75.515582,102 C72.3039294,102 71.0678009,100.656854 72.7546117,99 C74.4414226,97.3431458 78.3660582,96 81.5205308,96 C84.6750034,96 85.9111318,97.3431458 84.281501,99 C82.6518702,100.656854 78.7272345,102 75.515582,102 Z M98.3985025,102 C95.3909133,102 94.1465098,100.656854 95.6190495,99 C97.0915893,97.3431458 100.680043,96 103.634085,96 C106.588128,96 107.832531,97.3431458 106.413538,99 C104.994546,100.656854 101.406092,102 98.3985025,102 Z M120.558379,102 C117.509144,102 116.15949,100.656854 117.543844,99 C118.928197,97.3431458 122.47832,96 125.473267,96 C128.468213,96 129.817867,97.3431458 128.487802,99 C127.157737,100.656854 123.607614,102 120.558379,102 Z M143.724718,102 C140.635452,102 139.178906,100.656854 140.471431,99 C141.763956,97.3431458 145.271512,96 148.305776,96 C151.34004,96 152.796586,97.3431458 151.559062,99 C150.321539,100.656854 146.813983,102 143.724718,102 Z M165.897394,102 C162.769998,102 161.205199,100.656854 162.402317,99 C163.599436,97.3431458 167.06001,96 170.131726,96 C173.203442,96 174.768241,97.3431458 173.626802,99 C172.485364,100.656854 169.02479,102 165.897394,102 Z M189.076212,102 C185.912877,102 184.238784,100.656854 185.337019,99 C186.435255,97.3431458 189.844285,96 192.9513,96 C196.058315,96 197.732409,97.3431458 196.690493,99 C195.648577,100.656854 192.239547,102 189.076212,102 Z M211.260906,102 C208.064118,102 206.280043,100.656854 207.276062,99 C208.272081,97.3431458 211.624883,96 214.764756,96 C217.904628,96 219.688703,97.3431458 218.7496,99 C217.810496,100.656854 214.457694,102 211.260906,102 Z M234.451132,102 C231.223671,102 229.329313,100.656854 230.219966,99 C231.110619,97.3431458 234.402429,96 237.572429,96 C240.742429,96 242.636787,97.3431458 241.803595,99 C240.970403,100.656854 237.678594,102 234.451132,102 Z M256.646471,102 C253.3914,102 251.386876,100.656854 252.169242,99 C252.951608,97.3431458 256.177618,96 259.374736,96 C262.571854,96 264.576378,97.3431458 263.851965,99 C263.127552,100.656854 259.901542,102 256.646471,102 Z M279.442557,102 C276.43649,102 274.498535,100.656854 275.114013,99 C275.72949,97.3431458 278.621945,96 281.574492,96 C284.527038,96 286.464993,97.3431458 285.903036,99 C285.341078,100.656854 282.448623,102 279.442557,102 Z M302.629557,102 C299.60453,102 297.567031,100.656854 298.078676,99 C298.590321,97.3431458 301.4137,96 304.384869,96 C307.356039,96 309.393537,97.3431458 308.93575,99 C308.477962,100.656854 305.654584,102 302.629557,102 Z M324.819679,102 C321.779191,102 319.643512,100.656854 320.049507,99 C320.455501,97.3431458 323.205544,96 326.1919,96 C329.178255,96 331.313934,97.3431458 330.962072,99 C330.61021,100.656854 327.860167,102 324.819679,102 Z M348.012279,102 C344.960011,102 342.727952,100.656854 343.026835,99 C343.325718,97.3431458 345.998309,96 348.996235,96 C351.99416,96 354.22622,97.3431458 353.981679,99 C353.737139,100.656854 351.064547,102 348.012279,102 Z M370.206667,102 C367.14645,102 364.820241,100.656854 365.010935,99 C365.201628,97.3431458 367.792845,96 370.798578,96 C373.804312,96 376.130521,97.3431458 375.994311,99 C375.858101,100.656854 373.266885,102 370.206667,102 Z M393.402114,102 C390.33789,102 387.920185,100.656854 388.002018,99 C388.08385,97.3431458 390.590007,96 393.599675,96 C396.609344,96 399.027049,97.3431458 398.999771,99 C398.972494,100.656854 396.466337,102 393.402114,102 Z M415.597886,102 C412.533663,102 410.027506,100.656854 410.000229,99 C409.972951,97.3431458 412.390656,96 415.400325,96 C418.409993,96 420.91615,97.3431458 420.997982,99 C421.079815,100.656854 418.66211,102 415.597886,102 Z M438.793333,102 C435.733115,102 433.141899,100.656854 433.005689,99 C432.869479,97.3431458 435.195688,96 438.201422,96 C441.207155,96 443.798372,97.3431458 443.989065,99 C444.179759,100.656854 441.85355,102 438.793333,102 Z M460.987721,102 C457.935453,102 455.262861,100.656854 455.018321,99 C454.77378,97.3431458 457.00584,96 460.003765,96 C463.001691,96 465.674282,97.3431458 465.973165,99 C466.272048,100.656854 464.039989,102 460.987721,102 Z M484.180321,102 C481.139833,102 478.38979,100.656854 478.037928,99 C477.686066,97.3431458 479.821745,96 482.8081,96 C485.794456,96 488.544499,97.3431458 488.950493,99 C489.356488,100.656854 487.220809,102 484.180321,102 Z M506.370443,102 C503.345416,102 500.522038,100.656854 500.06425,99 C499.606463,97.3431458 501.643961,96 504.615131,96 C507.5863,96 510.409679,97.3431458 510.921324,99 C511.432969,100.656854 509.39547,102 506.370443,102 Z M528.557443,102 C525.551377,102 522.658922,100.656854 522.096964,99 C521.535007,97.3431458 523.472962,96 526.425508,96 C529.378055,96 532.27051,97.3431458 532.885987,99 C533.501465,100.656854 531.56351,102 528.557443,102 Z M551.353529,102 C548.098458,102 544.872448,100.656854 544.148035,99 C543.423622,97.3431458 545.428146,96 548.625264,96 C551.822382,96 555.048392,97.3431458 555.830758,99 C556.613124,100.656854 554.6086,102 551.353529,102 Z M574.548868,102 C571.321406,102 568.029597,100.656854 567.196405,99 C566.363213,97.3431458 568.257571,96 571.427571,96 C574.597571,96 577.889381,97.3431458 578.780034,99 C579.670687,100.656854 577.776329,102 574.548868,102 Z M596.739094,102 C593.542306,102 590.189504,100.656854 589.2504,99 C588.311297,97.3431458 590.095372,96 593.235244,96 C596.375117,96 599.727919,97.3431458 600.723938,99 C601.719957,100.656854 599.935882,102 596.739094,102 Z M619.923788,102 C616.760453,102 613.351423,100.656854 612.309507,99 C611.267591,97.3431458 612.941685,96 616.0487,96 C619.155715,96 622.564745,97.3431458 623.662981,99 C624.761216,100.656854 623.087123,102 619.923788,102 Z M642.102606,102 C638.97521,102 635.514636,100.656854 634.373198,99 C633.231759,97.3431458 634.796558,96 637.868274,96 C640.93999,96 644.400564,97.3431458 645.597683,99 C646.794801,100.656854 645.230002,102 642.102606,102 Z M665.275282,102 C662.186017,102 658.678461,100.656854 657.440938,99 C656.203414,97.3431458 657.65996,96 660.694224,96 C663.728488,96 667.236044,97.3431458 668.528569,99 C669.821094,100.656854 668.364548,102 665.275282,102 Z M687.441621,102 C684.392386,102 680.842263,100.656854 679.512198,99 C678.182133,97.3431458 679.531787,96 682.526733,96 C685.52168,96 689.071803,97.3431458 690.456156,99 C691.84051,100.656854 690.490856,102 687.441621,102 Z M710.601497,102 C707.593908,102 704.005454,100.656854 702.586462,99 C701.167469,97.3431458 702.411872,96 705.365915,96 C708.319957,96 711.908411,97.3431458 713.38095,99 C714.85349,100.656854 713.609087,102 710.601497,102 Z M733.484418,102 C730.272765,102 726.34813,100.656854 724.718499,99 C723.088868,97.3431458 724.324997,96 727.479469,96 C730.633942,96 734.558577,97.3431458 736.245388,99 C737.932199,100.656854 736.696071,102 733.484418,102 Z M755.64347,102 C752.479557,102 748.521931,100.656854 746.803864,99 C745.085796,97.3431458 746.212221,96 749.319804,96 C752.427386,96 756.385013,97.3431458 758.15941,99 C759.933807,100.656854 758.807383,102 755.64347,102 Z M778.795492,102 C775.680225,102 771.693523,100.656854 769.890943,99 C768.088364,97.3431458 769.107545,96 772.167348,96 C775.227151,96 779.213853,97.3431458 781.071896,99 C782.92994,100.656854 781.910759,102 778.795492,102 Z M17.290005,113 C14.1477742,113 13.0675336,111.656854 14.8772202,110 C16.6869068,108.343146 20.6574368,107 23.7456471,107 C26.8338575,107 27.914098,108.343146 26.1584319,110 C24.4027659,111.656854 20.4322359,113 17.290005,113 Z M40.4405203,113 C37.2517989,113 36.0666953,111.656854 37.7935175,110 C39.5203396,108.343146 43.4607348,107 46.5946365,107 C49.7285381,107 50.9136417,108.343146 49.2416393,110 C47.5696369,111.656854 43.6292417,113 40.4405203,113 Z M63.5976192,113 C60.3633816,113 59.0712127,111.656854 60.7114792,110 C62.3517457,108.343146 66.2582375,107 69.4368729,107 C72.6155083,107 73.9076772,108.343146 72.3230129,110 C70.7383487,111.656854 66.8318569,113 63.5976192,113 Z M87.76132,113 C84.482787,113 83.0815372,111.656854 84.6315408,110 C86.1815445,108.343146 90.050155,107 93.2723242,107 C96.4944934,107 97.8957433,108.343146 96.4021034,110 C94.9084635,111.656854 91.039853,113 87.76132,113 Z M110.93159,113 C107.610243,113 106.098118,111.656854 107.554163,110 C109.010208,108.343146 112.836762,107 116.101009,107 C119.365256,107 120.877382,108.343146 119.478436,110 C118.079491,111.656854 114.252938,113 110.93159,113 Z M134.108342,113 C130.745935,113 129.121393,111.656854 130.479828,110 C131.838262,108.343146 135.6184,107 138.923002,107 C142.227604,107 143.852146,108.343146 142.551517,110 C141.250888,111.656854 137.47075,113 134.108342,113 Z M157.961316,113 C154.82153,113 153.217032,111.656854 154.377569,110 C155.538106,108.343146 158.980448,107 162.066255,107 C165.152062,107 166.756561,108.343146 165.650002,110 C164.543444,111.656854 161.101102,113 157.961316,113 Z M181.135962,113 C177.962293,113 176.252019,111.656854 177.315958,110 C178.379897,108.343146 181.770926,107 184.890034,107 C188.009142,107 189.719416,108.343146 188.710038,110 C187.70066,111.656854 184.309631,113 181.135962,113 Z M204.315989,113 C201.110843,113 199.294268,111.656854 200.258555,110 C201.222842,108.343146 204.558166,107 207.70821,107 C210.858254,107 212.674829,108.343146 211.765644,110 C210.856459,111.656854 207.521135,113 204.315989,113 Z M228.501069,113 C225.267114,113 223.34407,111.656854 224.205829,110 C225.067589,108.343146 228.342751,107 231.521108,107 C234.699466,107 236.62251,108.343146 235.816348,110 C235.010185,111.656854 231.735023,113 228.501069,113 Z M251.690803,113 C248.430961,113 246.401661,111.656854 247.158233,110 C247.914806,108.343146 251.125323,107 254.329122,107 C257.532922,107 259.562223,108.343146 258.861692,110 C258.161162,111.656854 254.950645,113 251.690803,113 Z M274.88473,113 C271.602163,113 269.46722,111.656854 270.116201,110 C270.765182,108.343146 273.906582,107 277.132716,107 C280.358849,107 282.493792,108.343146 281.901245,110 C281.308697,111.656854 278.167296,113 274.88473,113 Z M299.082321,113 C295.780416,113 293.540861,111.656854 294.080134,110 C294.619407,108.343146 297.687279,107 300.932418,107 C304.177557,107 306.417113,108.343146 305.934606,110 C305.452098,111.656854 302.384226,113 299.082321,113 Z M322.282992,113 C318.965336,113 316.622623,111.656854 317.050396,110 C317.478169,108.343146 320.468201,107 323.728821,107 C326.98944,107 329.332154,108.343146 328.961417,110 C328.590681,111.656854 325.600648,113 322.282992,113 Z M345.486105,113 C342.156459,113 339.712471,111.656854 340.027305,110 C340.342139,108.343146 343.250168,107 346.522571,107 C349.794974,107 352.238962,108.343146 351.981371,110 C351.72378,111.656854 348.81575,113 345.486105,113 Z M368.690975,113 C365.353244,113 362.810288,111.656854 363.011123,110 C363.211958,108.343146 366.034016,107 369.314365,107 C372.594714,107 375.137671,108.343146 374.994217,110 C374.850763,111.656854 372.028706,113 368.690975,113 Z M392.896885,113 C389.555081,113 386.915875,111.656854 387.002052,110 C387.088229,108.343146 389.820583,107 393.104935,107 C396.389287,107 399.028493,108.343146 398.999768,110 C398.971042,111.656854 396.238688,113 392.896885,113 Z M416.103115,113 C412.761312,113 410.028958,111.656854 410.000232,110 C409.971507,108.343146 412.610713,107 415.895065,107 C419.179417,107 421.911771,108.343146 421.997948,110 C422.084125,111.656854 419.444919,113 416.103115,113 Z M439.309025,113 C435.971294,113 433.149237,111.656854 433.005783,110 C432.862329,108.343146 435.405286,107 438.685635,107 C441.965984,107 444.788042,108.343146 444.988877,110 C445.189712,111.656854 442.646756,113 439.309025,113 Z M463.513895,113 C460.18425,113 457.27622,111.656854 457.018629,110 C456.761038,108.343146 459.205026,107 462.477429,107 C465.749832,107 468.657861,108.343146 468.972695,110 C469.287529,111.656854 466.843541,113 463.513895,113 Z M486.717008,113 C483.399352,113 480.409319,111.656854 480.038583,110 C479.667846,108.343146 482.01056,107 485.271179,107 C488.531799,107 491.521831,108.343146 491.949604,110 C492.377377,111.656854 490.034664,113 486.717008,113 Z M509.917679,113 C506.615774,113 503.547902,111.656854 503.065394,110 C502.582887,108.343146 504.822443,107 508.067582,107 C511.312721,107 514.380593,108.343146 514.919866,110 C515.459139,111.656854 513.219584,113 509.917679,113 Z M533.11527,113 C529.832704,113 526.691303,111.656854 526.098755,110 C525.506208,108.343146 527.641151,107 530.867284,107 C534.093418,107 537.234818,108.343146 537.883799,110 C538.53278,111.656854 536.397837,113 533.11527,113 Z M557.309197,113 C554.049355,113 550.838838,111.656854 550.138308,110 C549.437777,108.343146 551.467078,107 554.670878,107 C557.874677,107 561.085194,108.343146 561.841767,110 C562.598339,111.656854 560.569039,113 557.309197,113 Z M580.498931,113 C577.264977,113 573.989815,111.656854 573.183652,110 C572.37749,108.343146 574.300534,107 577.478892,107 C580.657249,107 583.932411,108.343146 584.794171,110 C585.65593,111.656854 583.732886,113 580.498931,113 Z M603.684011,113 C600.478865,113 597.143541,111.656854 596.234356,110 C595.325171,108.343146 597.141746,107 600.29179,107 C603.441834,107 606.777158,108.343146 607.741445,110 C608.705732,111.656854 606.889157,113 603.684011,113 Z M627.864038,113 C624.690369,113 621.29934,111.656854 620.289962,110 C619.280584,108.343146 620.990858,107 624.109966,107 C627.229074,107 630.620103,108.343146 631.684042,110 C632.747981,111.656854 631.037707,113 627.864038,113 Z M651.038684,113 C647.898898,113 644.456556,111.656854 643.349998,110 C642.243439,108.343146 643.847938,107 646.933745,107 C650.019552,107 653.461894,108.343146 654.622431,110 C655.782968,111.656854 654.17847,113 651.038684,113 Z M674.891658,113 C671.52925,113 667.749112,111.656854 666.448483,110 C665.147854,108.343146 666.772396,107 670.076998,107 C673.3816,107 677.161738,108.343146 678.520172,110 C679.878607,111.656854 678.254065,113 674.891658,113 Z M698.06841,113 C694.747062,113 690.920509,111.656854 689.521564,110 C688.122618,108.343146 689.634744,107 692.898991,107 C696.163238,107 699.989792,108.343146 701.445837,110 C702.901882,111.656854 701.389757,113 698.06841,113 Z M721.23868,113 C717.960147,113 714.091537,111.656854 712.597897,110 C711.104257,108.343146 712.505507,107 715.727676,107 C718.949845,107 722.818456,108.343146 724.368459,110 C725.918463,111.656854 724.517213,113 721.23868,113 Z M744.402381,113 C741.168143,113 737.261651,111.656854 735.676987,110 C734.092323,108.343146 735.384492,107 738.563127,107 C741.741762,107 745.648254,108.343146 747.288521,110 C748.928787,111.656854 747.636618,113 744.402381,113 Z M768.55948,113 C765.370758,113 761.430363,111.656854 759.758361,110 C758.086358,108.343146 759.271462,107 762.405364,107 C765.539265,107 769.47966,108.343146 771.206483,110 C772.933305,111.656854 771.748201,113 768.55948,113 Z M791.709995,113 C788.567764,113 784.597234,111.656854 782.841568,110 C781.085902,108.343146 782.166143,107 785.254353,107 C788.342563,107 792.313093,108.343146 794.12278,110 C795.932466,111.656854 794.852226,113 791.709995,113 Z M3.63121751,123 C0.220453941,123 -1.00503594,121.656854 0.894009247,120 C2.79305444,118.343146 7.05155028,117 10.4056259,117 C13.7597016,117 14.9851915,118.343146 13.1428342,120 C11.3004769,121.656854 7.04198108,123 3.63121751,123 Z M27.7915573,123 C24.332931,123 22.9970449,121.656854 24.8077723,120 C26.6184997,118.343146 30.8435554,117 34.2446984,117 C37.6458413,117 38.9817273,118.343146 37.2284833,120 C35.4752393,121.656854 31.2501836,123 27.7915573,123 Z M52.6757858,123 C49.4207878,123 48.0758409,121.656854 49.6717627,120 C51.2676845,118.343146 55.156276,117 58.3571749,117 C61.5580739,117 62.9030208,118.343146 61.361198,120 C59.8193753,121.656854 55.9307837,123 52.6757858,123 Z M76.8370013,123 C73.5398436,123 72.0886286,121.656854 73.5956217,120 C75.1026149,118.343146 78.9527247,117 82.1950826,117 C85.4374405,117 86.8886556,118.343146 85.4364622,120 C83.9842687,121.656854 80.134159,123 76.8370013,123 Z M101.004326,123 C97.666506,123 96.1074499,121.656854 97.5220771,120 C98.9367044,118.343146 102.744353,117 106.026698,117 C109.309042,117 110.868099,118.343146 109.508947,120 C108.149795,121.656854 104.342147,123 101.004326,123 Z M125.177658,123 C121.800921,123 120.132695,121.656854 121.451571,120 C122.770447,118.343146 126.531498,117 129.852112,117 C133.172727,117 134.840953,118.343146 133.578199,120 C132.315445,121.656854 128.554395,123 125.177658,123 Z M149.356838,123 C145.943186,123 144.164736,121.656854 145.384558,120 C146.60438,118.343146 150.31456,117 153.671475,117 C157.028391,117 158.806841,118.343146 157.643755,120 C156.480669,121.656854 152.77049,123 149.356838,123 Z M173.541648,123 C170.093342,123 168.203917,121.656854 169.321499,120 C170.43908,118.343146 174.094003,117 177.484997,117 C180.875991,117 182.765416,118.343146 181.705146,120 C180.644876,121.656854 176.989954,123 173.541648,123 Z M197.731809,123 C194.251369,123 192.250549,121.656854 193.262854,120 C194.275158,118.343146 197.870354,117 201.292949,117 C204.715543,117 206.716363,118.343146 205.761905,120 C204.807446,121.656854 201.21225,123 197.731809,123 Z M222.547981,123 C219.308164,123 217.35837,121.656854 218.192994,120 C219.027619,118.343146 222.286955,117 225.472926,117 C228.658897,117 230.608691,118.343146 229.827913,120 C229.047135,121.656854 225.787799,123 222.547981,123 Z M246.732388,123 C243.468254,123 241.415867,121.656854 242.148254,120 C242.880641,118.343146 246.076483,117 249.286366,117 C252.49625,117 254.548637,118.343146 253.8705,120 C253.192364,121.656854 249.996522,123 246.732388,123 Z M270.920612,123 C267.635161,123 265.480839,121.656854 266.108798,120 C266.736758,118.343146 269.864938,117 273.095783,117 C276.326629,117 278.480951,118.343146 277.907597,120 C277.334242,121.656854 274.206063,123 270.920612,123 Z M295.112166,123 C291.808598,123 289.553375,121.656854 290.074985,120 C290.596594,118.343146 293.653004,117 296.901666,117 C300.150328,117 302.405551,118.343146 301.938848,120 C301.472144,121.656854 298.415735,123 295.112166,123 Z M319.306514,123 C315.988204,123 313.633499,121.656854 314.047134,120 C314.460769,118.343146 317.441399,117 320.704558,117 C323.967717,117 326.322421,118.343146 325.963938,120 C325.605454,121.656854 322.624824,123 319.306514,123 Z M343.503073,123 C340.173551,123 337.72117,121.656854 338.025527,120 C338.329884,118.343146 341.230865,117 344.50505,117 C347.779234,117 350.231615,118.343146 349.982595,120 C349.733576,121.656854 346.832595,123 343.503073,123 Z M367.701222,123 C364.364144,123 361.816274,121.656854 362.010396,120 C362.204517,118.343146 365.022158,117 368.303772,117 C371.585387,117 374.133257,118.343146 373.994599,120 C373.855941,121.656854 371.0383,123 367.701222,123 Z M391.900311,123 C388.559428,123 385.918628,121.656854 386.001917,120 C386.085207,118.343146 388.816034,117 392.10139,117 C395.386746,117 398.027546,118.343146 397.999783,120 C397.97202,121.656854 395.241193,123 391.900311,123 Z M416.099689,123 C412.758807,123 410.02798,121.656854 410.000217,120 C409.972454,118.343146 412.613254,117 415.89861,117 C419.183966,117 421.914793,118.343146 421.998083,120 C422.081372,121.656854 419.440572,123 416.099689,123 Z M440.298778,123 C436.9617,123 434.144059,121.656854 434.005401,120 C433.866743,118.343146 436.414613,117 439.696228,117 C442.977842,117 445.795483,118.343146 445.989604,120 C446.183726,121.656854 443.635856,123 440.298778,123 Z M465.496927,123 C462.167405,123 459.266424,121.656854 459.017405,120 C458.768385,118.343146 461.220766,117 464.49495,117 C467.769135,117 470.670116,118.343146 470.974473,120 C471.27883,121.656854 468.826449,123 465.496927,123 Z M489.693486,123 C486.375176,123 483.394546,121.656854 483.036062,120 C482.677579,118.343146 485.032283,117 488.295442,117 C491.558601,117 494.539231,118.343146 494.952866,120 C495.366501,121.656854 493.011796,123 489.693486,123 Z M513.887834,123 C510.584265,123 507.527856,121.656854 507.061152,120 C506.594449,118.343146 508.849672,117 512.098334,117 C515.346996,117 518.403406,118.343146 518.925015,120 C519.446625,121.656854 517.191402,123 513.887834,123 Z M538.079388,123 C534.793937,123 531.665758,121.656854 531.092403,120 C530.519049,118.343146 532.673371,117 535.904217,117 C539.135062,117 542.263242,118.343146 542.891202,120 C543.519161,121.656854 541.364839,123 538.079388,123 Z M562.267612,123 C559.003478,123 555.807636,121.656854 555.1295,120 C554.451363,118.343146 556.50375,117 559.713634,117 C562.923517,117 566.119359,118.343146 566.851746,120 C567.584133,121.656854 565.531746,123 562.267612,123 Z M586.452019,123 C583.212201,123 579.952865,121.656854 579.172087,120 C578.391309,118.343146 580.341103,117 583.527074,117 C586.713045,117 589.972381,118.343146 590.807006,120 C591.64163,121.656854 589.691836,123 586.452019,123 Z M611.268191,123 C607.78775,123 604.192554,121.656854 603.238095,120 C602.283637,118.343146 604.284457,117 607.707051,117 C611.129646,117 614.724842,118.343146 615.737146,120 C616.749451,121.656854 614.748631,123 611.268191,123 Z M635.458352,123 C632.010046,123 628.355124,121.656854 627.294854,120 C626.234584,118.343146 628.124009,117 631.515003,117 C634.905997,117 638.56092,118.343146 639.678501,120 C640.796083,121.656854 638.906658,123 635.458352,123 Z M659.643162,123 C656.22951,123 652.519331,121.656854 651.356245,120 C650.193159,118.343146 651.971609,117 655.328525,117 C658.68544,117 662.39562,118.343146 663.615442,120 C664.835264,121.656854 663.056814,123 659.643162,123 Z M683.822342,123 C680.445605,123 676.684555,121.656854 675.421801,120 C674.159047,118.343146 675.827273,117 679.147888,117 C682.468502,117 686.229553,118.343146 687.548429,120 C688.867305,121.656854 687.199079,123 683.822342,123 Z M707.995674,123 C704.657853,123 700.850205,121.656854 699.491053,120 C698.131901,118.343146 699.690958,117 702.973302,117 C706.255647,117 710.063296,118.343146 711.477923,120 C712.89255,121.656854 711.333494,123 707.995674,123 Z M732.162999,123 C728.865841,123 725.015731,121.656854 723.563538,120 C722.111344,118.343146 723.562559,117 726.804917,117 C730.047275,117 733.897385,118.343146 735.404378,120 C736.911371,121.656854 735.460156,123 732.162999,123 Z M756.324214,123 C753.069216,123 749.180625,121.656854 747.638802,120 C746.096979,118.343146 747.441926,117 750.642825,117 C753.843724,117 757.732315,118.343146 759.328237,120 C760.924159,121.656854 759.579212,123 756.324214,123 Z M781.208443,123 C777.749816,123 773.524761,121.656854 771.771517,120 C770.018273,118.343146 771.354159,117 774.755302,117 C778.156445,117 782.3815,118.343146 784.192228,120 C786.002955,121.656854 784.667069,123 781.208443,123 Z M805.368782,123 C801.958019,123 797.699523,121.656854 795.857166,120 C794.014809,118.343146 795.240298,117 798.594374,117 C801.94845,117 806.206946,118.343146 808.105991,120 C810.005036,121.656854 808.779546,123 805.368782,123 Z" id="形状结合" fill="url(#radialGradient-2)"></path>
                </g>
            </g>
        </g>
    </g>
</svg>